<?xml version="1.0" encoding="UTF-8" standalone="no"?>
<!-- Created with Inkscape (http://www.inkscape.org/) -->

<svg
   version="1.1"
   id="svg1"
   width="888.90948"
   height="885.29199"
   viewBox="0 0 888.90944 885.29197"
   sodipodi:docname="t1c.svg"
   inkscape:version="1.3 (0e150ed6c4, 2023-07-21)"
   xmlns:inkscape="http://www.inkscape.org/namespaces/inkscape"
   xmlns:sodipodi="http://sodipodi.sourceforge.net/DTD/sodipodi-0.dtd"
   xmlns="http://www.w3.org/2000/svg"
   xmlns:svg="http://www.w3.org/2000/svg">
  <defs
     id="defs1" />
  <sodipodi:namedview
     id="namedview1"
     pagecolor="#ffffff"
     bordercolor="#000000"
     borderopacity="0.25"
     inkscape:showpageshadow="2"
     inkscape:pageopacity="0.0"
     inkscape:pagecheckerboard="0"
     inkscape:deskcolor="#d1d1d1"
     showgrid="false"
     inkscape:zoom="0.75407595"
     inkscape:cx="472.76405"
     inkscape:cy="399.8271"
     inkscape:window-width="1920"
     inkscape:window-height="1011"
     inkscape:window-x="0"
     inkscape:window-y="0"
     inkscape:window-maximized="1"
     inkscape:current-layer="layer1" />
  <g
     inkscape:groupmode="layer"
     id="layer1"
     inkscape:label="Layer 1"
     transform="translate(327.01956,319.40188)">
    <path
       style="display:inline;fill:#000000;stroke-width:7.26775"
       d="M 62.293276,563.00447 C 7.1633878,556.94978 -59.648253,535.07255 -104.02101,508.54548 c -7.69026,-4.59743 -16.7782,-9.80681 -20.19542,-11.57644 -7.2783,-3.76913 -50.69305,-37.26996 -63.77521,-49.21189 -4.9656,-4.53282 -16.35425,-16.56821 -25.30813,-26.74531 -8.95386,-10.17711 -16.80899,-19.02712 -17.45582,-19.66668 -3.2612,-3.22455 -20.70452,-27.65989 -24.08267,-33.73602 -4.27208,-7.68404 -7.67108,-13.26291 -13.48111,-22.12695 -7.60331,-11.59998 -24.76095,-47.99723 -31.77141,-67.39805 -31.86313,-88.17819 -35.5526,-184.407278 -10.52177,-274.4302045 9.90524,-35.6240835 32.36311,-89.6019235 41.64126,-100.0854575 1.73762,-1.963363 6.4657,-9.812538 10.50687,-17.442588 4.04117,-7.63007 9.17365,-15.61299 11.40548,-17.7398 2.23184,-2.12682 6.37818,-7.62123 9.21406,-12.20982 2.83591,-4.58858 5.89176,-8.34288 6.79076,-8.34288 0.89902,0 3.58449,-3.30098 5.96776,-7.33551 4.75702,-8.053 38.39828,-42.32668 54.86613,-55.89757 68.80573,-56.70169 142.631998,-89.04189 230.187826,-100.83572 31.403353,-4.23005 90.022534,-4.22037 119.772524,0.0196 26.4938,3.77604 83.73826,17.94058 94.04517,23.27051 3.79,1.95987 8.18622,3.56342 9.76938,3.56342 6.33405,0 62.74422,29.67909 85.04575,44.74513 27.39694,18.50832 56.47469,43.31184 75.88903,64.73395 16.3318,18.02078 55.03161,69.40142 55.03161,73.06395 0,0.73058 4.24836,8.825399 9.44073,17.988472 36.14406,63.783931 55.36128,144.612767 52.68095,221.579368 -0.71297,20.46599 -2.97848,47.43968 -5.03503,59.94156 -4.01608,24.4138 -18.90828,78.80931 -26.00321,94.97996 -10.42478,23.75992 -29.9347,59.8778 -42.20614,78.13431 -7.31332,10.88019 -15.50516,23.0706 -18.20419,27.08974 -2.69895,4.01914 -11.45114,14.63347 -19.44937,23.58734 C 353.12425,525.74709 211.05499,579.34238 62.293276,563.00431 Z"
       id="path1" />
    <path
       id="path2"
       style="display:inline;fill:#ffcc00;stroke-width:7.26775"
       d="m 118.33786,-315.01126 c -23.088907,0.2224 -46.928214,1.39075 -61.249998,3.40821 -68.91722,9.70816 -128.89527,32.64822 -186.664062,71.39453 -29.32511,19.66875 -38.78377,27.58174 -66.68555,55.77539 -34.0177,34.37356 -59.80735,70.92949 -82.64844,117.154297 -34.48332,69.7858912 -50.78761,162.228317 -41.42968,234.892573 9.03129,70.12774 24.18123,117.69036 56.30273,176.75196 13.5319,24.88096 45.93895,66.68147 71.94531,92.80078 14.04555,14.10655 48.53098,41.73462 67.16797,53.81055 88.070495,57.06566 193.574608,80.87074 298.14844,67.27148 61.69149,-8.02257 101.93061,-21.75278 169.58008,-57.86133 29.29917,-15.63872 82.3134,-60.76126 109.5332,-93.22851 47.62799,-56.80976 82.22299,-129.2018 97.4043,-203.82032 9.80954,-48.21533 9.07614,-124.990777 -1.65234,-172.939449 -11.18149,-49.973278 -35.0112,-108.059974 -59.7168,-145.564451 -2.1828,-3.31356 -7.01546,-10.64095 -10.73828,-16.28125 -29.19357,-44.22966 -87.45784,-98.02378 -135.09766,-124.73438 -53.28277,-29.8745 -101.97124,-46.32052 -167.44922,-56.55859 -11.32295,-1.77044 -33.66109,-2.49388 -56.75,-2.27149 z m -7.26172,118.93165 c 6.20653,0.009 12.84658,0.1096 20.02735,0.28515 38.16839,0.93312 46.90806,1.87981 66.08007,7.16016 24.06435,6.62778 51.63143,17.3632 66.28125,25.8125 5.11649,2.95095 15.58112,8.79093 23.25586,12.97851 62.2346,33.95712 112.6722,97.327465 138.26563,173.718754 8.88307,26.514221 11.39377,39.238984 14.08008,71.363281 2.13039,25.476625 0.0434,63.634895 -4.9043,89.818355 -5.9559,31.49713 -25.60601,77.94106 -44.08984,104.20704 -18.14871,25.78979 -18.09791,25.6567 -12.03711,30.63867 2.89517,2.37983 6.55886,4.79011 8.14062,5.35547 6.03245,2.15597 -1.33666,4.97971 -13.21484,5.06445 -12.24215,0.0872 -12.61576,0.30379 -31.29102,18.13672 -10.39556,9.92658 -18.90039,19.0138 -18.90039,20.19336 0,1.17948 2.09215,2.80914 4.65039,3.62109 2.55824,0.81195 4.65235,2.32503 4.65235,3.36133 0,4.45505 -7.48589,7.28018 -23.53516,8.88672 l -17.16406,1.71875 0.45508,6.9707 c 1.85443,28.34049 1.59893,30.68237 -4.77344,43.70703 -4.54265,9.28483 -9.47071,15.17939 -16.86524,20.16992 -5.74591,3.87785 -10.98605,7.04883 -11.64453,7.04883 -0.65846,0 -6.231,5.17044 -12.38476,11.48828 -13.03376,13.38122 -24.72799,21.05029 -32.11524,21.0625 -2.87802,0.004 -5.22283,-0.2525 -5.20898,-0.57226 0.0139,-0.31979 1.56104,-5.64132 3.4375,-11.82617 3.01587,-9.94031 3.00404,-12.21916 -0.0977,-19.64258 -4.77186,-11.42024 -14.47565,-23.76563 -18.68164,-23.76563 -1.8986,0 -5.77049,-1.49357 -8.60351,-3.32031 -3.92887,-2.5334 -7.63268,-2.81804 -15.61524,-1.19922 -20.36371,4.12982 -69.880067,4.96222 -91.865233,1.54492 -20.27888,-3.15208 -21.24493,-3.09323 -31.019531,1.86133 -10.357796,5.25015 -16.588533,12.55464 -22.621094,26.52149 -3.071162,7.11054 -3.035507,9.18747 0.335938,19.33789 2.077382,6.25439 3.409079,11.68483 2.958984,12.0664 -0.450094,0.38155 -5.363517,-0.85264 -10.917968,-2.74218 -6.100662,-2.07536 -14.8477807,-8.17729 -22.0937504,-15.41211 -6.5972156,-6.58705 -16.9304066,-14.86417 -22.9628906,-18.39258 -21.326225,-12.47392 -31.422504,-33.52056 -27.154297,-56.60938 1.317187,-7.12529 1.878232,-14.30386 1.246094,-15.95117 -0.74974,-1.95386 -7.162577,-3.2995 -18.44336,-3.86914 -10.34349,-0.52255 -18.89556,-2.20106 -21.277343,-4.17773 -3.694041,-3.06576 -3.548196,-3.53235 2.003906,-6.44141 3.291927,-1.72486 5.984375,-3.7878 5.984375,-4.58594 0,-0.79822 -8.819654,-10.09447 -19.59961,-20.6582 -19.15833,-18.7741 -19.80966,-19.17833 -28.95898,-17.95117 -5.1481,0.69044 -11.2103,0.5455 -13.47071,-0.32227 -3.55976,-1.36604 -3.10842,-2.36192 3.37696,-7.4375 4.11812,-3.22295 7.48828,-6.86428 7.48828,-8.0918 0,-1.22752 -5.62994,-10.3095 -12.51172,-20.18164 -21.72464,-31.16469 -36.8815,-66.73291 -45.93164,-107.79296 -7.07586,-32.10285 -7.71756,-92.827302 -1.29883,-122.955083 13.50186,-63.37422407 42.83254,-119.630395 86.52734,-165.962887 13.52086,-14.33703 42.877528,-36.88214 61.589847,-47.29883 32.345831,-18.00615 39.5553669,-21.57457 56.9824224,-28.20899 C 45.4239,-191.73239 67.630394,-196.14268 111.0761,-196.07961 Z" />
    <g
       id="layer5"
       inkscape:label="01"
       style="display:inline;fill:#808000"
       transform="translate(-327.01956,-319.40188)">
      <path
         style="display:inline;fill:#808000;stroke-width:7.26775"
         d="m -129.63832,301.92235 c 0.8786,-2.23846 2.3684,-17.04556 3.31068,-32.90466 1.51028,-25.41931 1.21279,-29.81623 -2.51148,-37.1212 -2.76651,-5.42635 -4.2247,-13.3743 -4.2247,-23.02715 0,-8.84713 -1.46005,-17.56411 -3.65186,-21.80257 -2.11839,-4.09655 -3.38752,-11.36032 -3.02235,-17.29844 0.34624,-5.63009 0.15807,-10.3728 -0.41812,-10.53934 -0.57619,-0.16658 -5.09997,1.39039 -10.0529,3.45985 -9.93971,4.15309 -22.39135,5.00961 -22.39135,1.54027 0,-1.22232 2.51938,-5.93491 5.59863,-10.47244 5.84952,-8.61974 13.1795,-37.58495 17.6806,-69.866799 2.67689,-19.198476 7.61099,-35.500186 13.6106,-44.967815 2.96355,-4.676602 2.98262,-5.721869 0.13708,-7.522846 -1.81753,-1.150373 -4.47168,-2.107612 -5.89807,-2.127193 -4.02263,-0.05526 -14.84913,-9.318412 -14.84913,-12.704936 0,-1.665969 3.13327,-3.655671 6.96283,-4.421586 10.00721,-2.001447 25.86655,-17.6474701 40.66614,-40.119142 7.06127,-10.721838 12.83869,-20.222217 12.83869,-21.111972 0,-0.889754 5.884197,-12.010087 13.075994,-24.711826 20.728841,-36.610165 44.364883,-57.669285 70.987375,-63.247985 4.2905261,-0.89907 11.98719482,-5.5367 17.1037065,-10.30582 25.6827545,-23.93906 42.9868925,-32.72353 64.4606235,-32.72353 16.995095,0 30.741221,3.71398 40.414521,10.91929 8.98643,6.6937 10.31975,6.67387 18.40492,-0.27348 12.31072,-10.5783 45.52621,-14.51388 62.53052,-7.40904 10.96883,4.58307 27.9574,16.337 40.94322,28.32751 6.8285,6.30512 13.60943,10.2356 19.51195,11.30991 12.19624,2.21978 30.44916,12.31539 40.21876,22.24486 10.72299,10.89843 25.7617,33.804756 38.93544,59.304832 19.10597,36.982956 44.4638,66.281874 57.36609,66.281874 2.29087,0 4.85987,1.124034 5.70889,2.497847 1.72849,2.796762 -7.59378,13.781914 -11.6957,13.781914 -1.45122,0 -4.52323,1.378087 -6.82674,3.062425 -3.99254,2.919446 -3.92037,3.598083 1.54578,14.535486 5.45205,10.909196 11.79912,39.707882 14.31754,64.963712 1.62477,16.29426 7.3027,33.83073 14.2849,44.11959 3.26722,4.81444 5.41571,9.27819 4.77448,9.91942 -2.58151,2.58146 -20.72777,0.66936 -25.9173,-2.7309 -3.04846,-1.99742 -6.04277,-3.63168 -6.65414,-3.63168 -0.61121,0 -1.07199,5.09258 -1.0238,11.31685 0.0509,6.22428 -1.4606,14.33508 -3.35291,18.02402 -2.01484,3.9278 -3.43154,13.02728 -3.41867,21.95883 0.0146,9.7201 -1.38284,17.96824 -3.8514,22.74185 -3.23197,6.24997 -3.66971,12.30953 -2.64394,36.59609 1.15892,27.43768 3.45,38.20586 8.12891,38.20586 3.3444,0 27.67384,-38.14545 35.92419,-56.32449 23.04269,-50.77271 32.37019,-104.39934 27.01466,-155.316267 -9.02676,-85.820872 -46.57457,-158.59103 -110.51397,-214.183433 -20.67214,-17.97351 -67.8182,-44.73559 -100.44231,-57.01527 -51.12232,-19.2424 -122.68435,-22.37535 -182.001253,-7.96796 -19.537015,4.74532 -24.668178,6.58157 -46.0611779,16.48341 -8.1544271,3.77431 -15.1781001,6.86239 -15.6081711,6.86239 -2.209175,0 -41.822059,24.40915 -51.879643,31.96785 -50.799605,38.177978 -82.021105,81.027534 -106.221015,145.781719 -14.68568,39.296044 -18.30506,59.808608 -18.49523,104.820521 -0.13978,33.07223 0.72386,43.71935 5.28165,65.11903 2.99679,14.07036 6.20472,26.62903 7.12874,27.90815 0.92401,1.27913 3.02996,7.03519 4.6799,12.79124 6.58553,22.97475 38.87987,79.07311 45.5203,79.07311 1.62883,0 3.68037,-1.83147 4.55896,-4.06994 z"
         id="path20"
         transform="translate(327.01956,319.40188)" />
      <path
         style="display:inline;fill:#808000;stroke-width:7.26775"
         d="m 339.51481,345.48982 c 17.95091,-17.68759 18.69309,-18.81773 14.461,-22.01997 -2.55701,-1.93482 -9.7217,-3.40712 -16.78639,-3.44949 -11.51858,-0.0727 -25.37564,-4.86191 -28.63709,-9.90471 -0.78422,-1.21255 -3.92389,-1.85146 -6.97704,-1.41975 -4.7889,0.67735 -5.46697,1.90269 -4.93792,8.92479 0.33729,4.47694 1.84605,12.3261 3.35278,17.4426 3.07605,10.4455 14.80973,29.071 18.3141,29.071 1.2587,0 10.80343,-8.39004 21.21056,-18.64447 z"
         id="path19"
         transform="translate(327.01956,319.40188)" />
      <path
         style="display:inline;fill:#808000;stroke-width:7.26775"
         d="m -68.774032,348.23928 c 6.083358,-11.48057 7.8063,-17.51186 7.8063,-27.32673 0,-14.80906 -2.30789,-15.75045 -16.152513,-6.58851 -6.682785,4.42243 -12.751183,6.19467 -23.015595,6.72151 -14.6687,0.75286 -18.9739,2.19362 -18.9739,6.34968 0,4.2855 35.152256,37.02962 38.949732,36.28148 1.968831,-0.3881 7.092505,-7.33476 11.385976,-15.43743 z"
         id="path18"
         transform="translate(327.01956,319.40188)" />
      <path
         style="display:inline;fill:#808000;stroke-width:7.26775"
         d="m 165.20462,433.78236 c 4.79672,-1.3321 8.7213,-2.83784 8.7213,-3.34607 0,-3.08996 -16.64327,-17.77212 -24.68143,-21.77309 -5.26048,-2.61842 -14.57668,-10.30726 -20.70268,-17.0864 -6.85317,-7.58375 -11.53814,-11.16559 -12.17787,-9.31035 -2.75263,7.98275 -24.226614,25.97726 -35.13015,29.43794 -2.637764,0.83718 -8.065859,5.65075 -12.062438,10.69682 -7.44198,9.39633 -7.309476,9.84911 3.587494,12.26033 9.690799,2.14435 84.107024,1.43662 92.445774,-0.87918 z"
         id="path17"
         transform="translate(327.01956,319.40188)" />
    </g>
    <g
       id="layer7"
       inkscape:label="03"
       transform="translate(-327.01956,-319.40188)"
       style="display:inline">
      <path
         id="path10"
         style="display:inline;fill:#ffeeaa;stroke-width:7.26775"
         d="m 119.72849,-127.74758 -3.75586,15.13086 c -4.44841,17.913958 -10.92795,29.100777 -23.357424,40.330074 -12.202343,11.024072 -21.346235,15.472657 -31.800782,15.472657 -10.270769,0 -19.453125,7.361401 -19.453125,15.595703 0,3.014981 -1.577309,6.088069 -3.505859,6.828125 -4.846993,1.859949 -14.838527,-5.155932 -17.568359,-12.335938 -2.162195,-5.687014 -2.49162,-5.782575 -7.455079,-2.15625 -2.8559447,2.086546 -10.1665149,7.00291 -16.2460933,10.925781 -7.0798287,4.568276 -11.5856767,9.358374 -12.5351567,13.324219 -2.175979,9.088918 -7.381731,18.6202496 -17.46289,31.9726565 -4.922159,6.5193535 -8.95024,13.8509605 -8.949219,16.2929685 10e-4,2.442009 3.142152,11.076182 6.978516,19.185547 4.619876,9.76559 6.974609,18.375914 6.974609,25.501953 0,15.73034 8.881822,55.639844 15.341797,68.935544 3.07407,6.327 5.5898438,13.44264 5.5898437,15.81446 0,5.6287 14.0968999,41.28906 16.3222657,41.28906 0.9417579,0 3.1487606,-1.7464 4.9042966,-3.88086 3.335768,-4.05584 29.991544,-17.02421 35.119141,-17.08594 6.022222,-0.0727 9.293191,-3.9658 7.658203,-9.11719 -1.359122,-4.28224 -2.771713,-4.85213 -8.970703,-3.61523 l -7.357422,1.46875 6.205078,-4.27344 c 3.413071,-2.34995 10.566782,-9.22638 15.896484,-15.28125 5.329704,-6.05487 11.38156,-11.00781 13.449219,-11.00781 2.469253,0 0.406321,3.22164 -6.011719,9.38867 -12.388064,11.90357 -13.050348,19.99582 -2.375,28.97852 6.410936,5.39445 8.730536,6.02307 17.441407,4.71679 5.869809,-0.88022 10.048828,-0.5854 10.048828,0.70899 0,1.21861 4.417058,3.98219 9.816403,6.14258 11.85977,4.74534 26.59196,3.19529 35.38672,-3.72266 4.35972,-3.42936 7.84526,-4.30764 12.78516,-3.22266 9.10907,2.00069 19.66157,-3.71059 23.36133,-12.64257 2.67683,-6.46248 2.37975,-7.80676 -3.40625,-15.39258 -3.48713,-4.57187 -7.79867,-8.87425 -9.58204,-9.5586 -3.54073,-1.35868 -4.46598,-5.39648 -1.23632,-5.39648 1.10361,0 9.09667,6.91668 17.76172,15.37109 14.75807,14.39935 15.29313,15.27057 8.45898,13.76953 -4.3727,-0.96039 -7.29687,-0.67381 -7.29688,0.7168 0,1.27614 -0.56343,3.79238 -1.2539,5.5918 -0.90643,2.36212 2.49046,4.31482 12.21875,7.01953 7.41086,2.06041 18.1786,6.93383 23.92969,10.83008 5.75108,3.89624 11.63713,7.10172 13.08007,7.125 2.92942,0.0473 10.66627,-19.4501 16.10547,-40.58789 1.96526,-7.63732 5.11808,-15.59372 7.00586,-17.67969 3.97152,-4.38849 9.95542,-34.217296 12.49024,-62.263672 0.96477,-10.674597 2.70192,-20.09416 3.85937,-20.931641 4.9204,-3.560226 10.24414,-16.88446 10.24414,-25.638671 0,-7.147602 -1.67262,-11.349686 -6.8789,-17.2792973 -7.50574,-8.54858095 -18.70313,-29.3606027 -18.70313,-34.7617187 0,-1.861509 -4.97299,-6.640462 -11.04883,-10.621094 -6.07583,-3.980652 -13.33148,-8.929571 -16.125,-10.996094 -4.86656,-3.600043 -5.23555,-3.452861 -8.83203,3.501954 -3.31781,6.41594 -11.29166,11.710937 -17.63672,11.710937 -1.19585,0 -2.17383,-2.563404 -2.17383,-5.695312 0,-9.029366 -9.49758,-17.5625 -19.54687,-17.5625 -10.55989,0 -22.90453,-6.307137 -35.10742,-17.939454 -10.88815,-10.379033 -15.80461,-20.073902 -19.85742,-39.148437 z m 63.49218,120.6152312 c 6.63062,0.00708 14.30294,1.1695871 27.96485,3.8183594 25.02268,4.8513634 30.9673,5.0281835 40.0957,1.1933594 3.04315,-1.2784286 3.75761,-0.8385265 2.7793,1.7109375 -0.72431,1.8874628 -6.97783,6.2963536 -13.89649,9.796875 -12.24758,6.1967185 -13.27126,6.3220725 -38.83789,4.7246095 -29.24257,-1.827141 -42.13073,0.385564 -52.08203,8.945312 -7.56681,6.508706 -9.69952,22.24633 -5.65625,41.722657 2.72629,13.132451 6.93914,18.307998 26.84961,32.978515 3.95568,2.914644 4.06923,3.437104 0.75977,3.500004 -2.14033,0.0406 -7.00041,-2.542424 -10.80078,-5.740238 -9.1118,-7.667068 -10.22695,-7.358091 -8.41016,2.326172 2.97216,15.843006 -2.96011,7.974596 -8.32813,-11.046875 -6.60057,-23.388994 -9.10885,-64.284185 -4.47461,-72.94336 5.12712,-9.5801185 17.57462,-17.2534128 32.15821,-19.8222653 4.29701,-0.7569028 7.90054,-1.1683082 11.8789,-1.1640625 z M 60.222627,-6.80813 c 1.710335,0.026415 3.191086,0.1223194 4.396485,0.2949219 14.861842,2.1280959 19.773838,4.3474172 27.490234,12.421875 C 103.48202,17.809092 104.88177,41.339903 96.283174,76.064917 89.928345,101.72845 84.34712,113.82168 86.642549,96.953589 l 1.386719,-10.191407 -8.296875,7.285157 c -8.089687,7.102861 -15.113281,9.479311 -15.113281,5.115234 0,-1.192942 1.831835,-2.756492 4.070312,-3.476562 C 70.927882,94.96592 77.194451,90.447396 82.615206,85.644995 91.638141,77.651307 92.682302,75.537129 94.968721,60.633276 97.957709,41.149845 96.417628,30.905593 89.513643,24.352026 80.400158,15.701093 73.674547,14.385567 37.873018,14.250464 3.3905818,14.120308 2.8748691,14.042254 -6.8574506,7.4399169 -17.270332,0.37591434 -18.481349,-5.1372706 -8.4804975,0.051245 -4.245061,2.248616 -0.16465989,2.5086524 6.0155962,0.97507312 25.014483,-3.7393288 48.250289,-6.9930363 60.222627,-6.80813 Z M 17.550752,29.402807 c 1.467189,-0.11587 1.026544,3.525064 -2.255859,10.28125 -3.990914,8.21449 -4.597355,11.809496 -2.837891,16.8125 3.602413,10.243392 10.995975,12.650872 35.484375,11.552735 24.902088,-1.116678 29.997442,-3.825619 26.164063,-13.908203 -1.578652,-4.152164 -1.557907,-6.612877 0.06055,-7.613282 3.392681,-2.096769 3.971252,-0.967938 4.818359,9.386719 0.653299,7.985814 -0.0538,9.581926 -5.398437,12.195313 -8.950619,4.3767 -38.4871,5.754736 -50.775391,2.36914 C 6.7893893,66.064946 1.8762498,51.929167 11.103487,36.795386 c 3.011278,-4.938855 5.306119,-7.302457 6.447265,-7.392579 z m 202.767578,0.05664 c 2.91406,0.14456 7.42657,6.156268 9.5918,13.425781 3.07247,10.315535 0.17553,19.380109 -7.88282,24.660157 -6.74181,4.417403 -31.21578,6.359119 -46.07421,3.654296 -18.45192,-3.359006 -20.23287,-5.123893 -17.41993,-17.248046 2.90495,-12.520762 7.05433,-11.720883 4.91407,0.947265 -1.47835,8.750322 -1.34919,8.949 7.39453,11.376953 22.18081,6.159212 52.26778,1.021996 54.99023,-9.388672 1.39848,-5.347801 -1.64913,-17.326154 -5.62695,-22.11914 -1.51514,-1.825639 -2.10733,-3.964935 -1.31641,-4.75586 0.40492,-0.404921 0.89005,-0.579504 1.42969,-0.552734 z"
         transform="translate(327.01956,319.40188)" />
      <path
         style="fill:#ffeeaa;stroke-width:7.26775"
         d="m 112.2954,236.2219 c 2.31518,-2.55825 5.09378,-4.65136 6.17466,-4.65136 1.08087,0 4.05834,2.09311 6.61659,4.65136 5.43192,5.43193 14.9506,5.96356 25.71759,1.43638 l 7.64617,-3.21497 -12.61194,-1.73231 c -9.96416,-1.36862 -14.10563,-3.31508 -19.72669,-9.27137 l -7.11473,-7.53906 -8.44147,7.73602 c -6.41383,5.87784 -11.408406,8.13326 -20.793417,9.38976 l -12.351956,1.65373 6.97704,2.99169 c 10.719489,4.59643 23.014373,3.95769 27.908153,-1.44987 z"
         id="path9"
         transform="translate(327.01956,319.40188)" />
    </g>
  </g>
</svg>
