<?xml version="1.0" encoding="UTF-8"?>
<svg id="Calque_2" data-name="Calque 2" xmlns="http://www.w3.org/2000/svg" viewBox="0 0 4109.85 2146.84">
  <defs>
    <style>
      .cls-1 {
        opacity: .3;
      }

      .cls-1, .cls-2, .cls-3, .cls-4, .cls-5, .cls-6, .cls-7, .cls-8, .cls-9, .cls-10, .cls-11, .cls-12, .cls-13, .cls-14, .cls-15, .cls-16, .cls-17, .cls-18, .cls-19, .cls-20, .cls-21, .cls-22, .cls-23, .cls-24, .cls-25, .cls-26, .cls-27, .cls-28, .cls-29, .cls-30, .cls-31, .cls-32, .cls-33, .cls-34, .cls-35, .cls-36, .cls-37, .cls-38, .cls-39, .cls-40, .cls-41, .cls-42, .cls-43, .cls-44, .cls-45, .cls-46, .cls-47, .cls-48, .cls-49, .cls-50, .cls-51, .cls-52, .cls-53, .cls-54, .cls-55, .cls-56, .cls-57, .cls-58, .cls-59, .cls-60, .cls-61, .cls-62, .cls-63, .cls-64, .cls-65, .cls-66, .cls-67, .cls-68, .cls-69, .cls-70, .cls-71, .cls-72, .cls-73, .cls-74, .cls-75, .cls-76, .cls-77, .cls-78, .cls-79, .cls-80, .cls-81, .cls-82, .cls-83, .cls-84, .cls-85, .cls-86, .cls-87, .cls-88, .cls-89, .cls-90, .cls-91, .cls-92, .cls-93, .cls-94, .cls-95, .cls-96, .cls-97, .cls-98, .cls-99, .cls-100, .cls-101, .cls-102, .cls-103, .cls-104, .cls-105, .cls-106, .cls-107, .cls-108, .cls-109, .cls-110, .cls-111, .cls-112, .cls-113, .cls-114, .cls-115, .cls-116, .cls-117, .cls-118, .cls-119, .cls-120, .cls-121, .cls-122, .cls-123, .cls-124, .cls-125, .cls-126, .cls-127, .cls-128, .cls-129, .cls-130, .cls-131, .cls-132, .cls-133, .cls-134, .cls-135, .cls-136, .cls-137, .cls-138 {
        stroke-width: 0px;
      }

      .cls-2 {
        opacity: .1;
      }

      .cls-2, .cls-22 {
        fill: #282144;
      }

      .cls-3, .cls-4 {
        opacity: .25;
      }

      .cls-3, .cls-117 {
        fill: #fff;
      }

      .cls-4 {
        fill: #989898;
      }

      .cls-139, .cls-6 {
        opacity: .35;
      }

      .cls-7 {
        fill: #996930;
        opacity: .6;
      }

      .cls-8 {
        fill: #f2f3f2;
      }

      .cls-9 {
        fill: #f7ae6b;
      }

      .cls-10 {
        fill: #f9ac68;
      }

      .cls-11 {
        fill: #f9b576;
      }

      .cls-12 {
        fill: #f9e88c;
      }

      .cls-13 {
        fill: #f9caca;
      }

      .cls-14 {
        fill: #f9b59d;
      }

      .cls-15 {
        fill: #714b43;
      }

      .cls-16 {
        fill: #6fc6ac;
      }

      .cls-17 {
        fill: #45bb94;
      }

      .cls-18 {
        fill: #78cfe6;
      }

      .cls-19 {
        fill: #78d0ed;
      }

      .cls-20 {
        fill: #7168c1;
      }

      .cls-21 {
        fill: #764534;
      }

      .cls-23 {
        fill: #7ac693;
      }

      .cls-24 {
        fill: #35488f;
      }

      .cls-25 {
        fill: #353535;
      }

      .cls-26 {
        fill: #2a2b2a;
      }

      .cls-27 {
        fill: #5662ac;
      }

      .cls-28 {
        fill: #2c2c2e;
      }

      .cls-29 {
        fill: #59595c;
      }

      .cls-30 {
        fill: #6f7ebc;
      }

      .cls-31 {
        fill: #704a44;
      }

      .cls-32 {
        fill: #9b96be;
      }

      .cls-33 {
        fill: #9b93c7;
      }

      .cls-34 {
        fill: #541b53;
      }

      .cls-35 {
        fill: #4690bf;
      }

      .cls-36 {
        fill: #726a8e;
      }

      .cls-37 {
        fill: #a2ad77;
      }

      .cls-38 {
        fill: #9c5c46;
      }

      .cls-39 {
        fill: #a45c26;
      }

      .cls-40 {
        fill: #3b235f;
      }

      .cls-41 {
        fill: #3a3a3a;
      }

      .cls-42 {
        fill: #3c5f8c;
      }

      .cls-43 {
        fill: #572c3d;
      }

      .cls-44 {
        fill: #3e50a2;
      }

      .cls-45 {
        fill: #191818;
      }

      .cls-46 {
        fill: #120e10;
      }

      .cls-47 {
        fill: #3f61ac;
      }

      .cls-48 {
        fill: #212120;
      }

      .cls-49 {
        fill: #1e7189;
      }

      .cls-50 {
        fill: #1e1e1e;
      }

      .cls-51 {
        fill: #161616;
      }

      .cls-52 {
        fill: #d09e7d;
      }

      .cls-53 {
        fill: #d1d1d1;
      }

      .cls-54 {
        fill: #d1d1d0;
      }

      .cls-55 {
        fill: #d1e1ca;
      }

      .cls-56 {
        fill: #dededd;
      }

      .cls-57 {
        fill: #d18733;
      }

      .cls-58 {
        fill: #cfdcdb;
      }

      .cls-59 {
        fill: #cc2027;
      }

      .cls-60 {
        fill: #c9df87;
      }

      .cls-61 {
        fill: #c59651;
      }

      .cls-62 {
        fill: #dfedec;
      }

      .cls-63 {
        fill: #abb9b8;
      }

      .cls-64 {
        fill: #c6c5c4;
      }

      .cls-65 {
        fill: #dbb87a;
      }

      .cls-66 {
        fill: #dbab81;
      }

      .cls-67 {
        fill: #c89b60;
      }

      .cls-68 {
        fill: #e09559;
      }

      .cls-69 {
        fill: #ad587b;
      }

      .cls-70 {
        fill: #bf658d;
      }

      .cls-71 {
        fill: #a697c8;
      }

      .cls-72 {
        fill: #c51f46;
      }

      .cls-73 {
        fill: #bfb7da;
      }

      .cls-74 {
        fill: #bfbebe;
      }

      .cls-75 {
        fill: #bfb162;
      }

      .cls-76 {
        fill: #bfbfbf;
      }

      .cls-77 {
        fill: #bf6068;
      }

      .cls-78 {
        fill: #be8875;
      }

      .cls-79 {
        fill: #be9c7b;
      }

      .cls-80 {
        fill: #d7e9e7;
      }

      .cls-81 {
        fill: #a4bf88;
      }

      .cls-82 {
        fill: #b27a37;
      }

      .cls-83 {
        fill: #bd7cb4;
      }

      .cls-84 {
        fill: #a5ce53;
      }

      .cls-85 {
        fill: #aaa;
      }

      .cls-86 {
        fill: #a7d7b2;
      }

      .cls-87 {
        fill: #cececd;
      }

      .cls-88 {
        fill: #cebada;
      }

      .cls-89 {
        fill: #b7b7b7;
      }

      .cls-90 {
        fill: #b8e1da;
      }

      .cls-91 {
        fill: #8acfbb;
      }

      .cls-92 {
        fill: #a14a24;
      }

      .cls-93 {
        fill: #9067ab;
      }

      .cls-94 {
        fill: #b6b6b6;
      }

      .cls-95 {
        fill: #b497c7;
      }

      .cls-96 {
        fill: #bad15c;
      }

      .cls-97 {
        fill: #323233;
      }

      .cls-98 {
        fill: #bb99c7;
      }

      .cls-99 {
        fill: #331d16;
      }

      .cls-100 {
        fill: #8db6be;
      }

      .cls-101 {
        fill: #6bb94d;
      }

      .cls-102 {
        fill: #6ac5ef;
      }

      .cls-103 {
        fill: #9778b5;
      }

      .cls-104 {
        fill: #00a8c5;
      }

      .cls-105 {
        fill: #9359a3;
      }

      .cls-106 {
        fill: #fde3ca;
      }

      .cls-107 {
        fill: #fddab8;
      }

      .cls-108 {
        fill: #fdddbe;
      }

      .cls-109 {
        fill: #7eaddc;
      }

      .cls-110 {
        fill: #818282;
      }

      .cls-111 {
        fill: #7dc8a5;
      }

      .cls-112 {
        fill: #67a846;
      }

      .cls-113 {
        fill: #edb68d;
      }

      .cls-114 {
        fill: #ffd89f;
      }

      .cls-115 {
        fill: #f37721;
      }

      .cls-116 {
        fill: #f49aa7;
      }

      .cls-118 {
        fill: #edeced;
      }

      .cls-119 {
        fill: #e8e7e7;
      }

      .cls-120 {
        fill: #ffe9a0;
      }

      .cls-121 {
        fill: #ffd986;
      }

      .cls-122 {
        fill: #ffe4cb;
      }

      .cls-123 {
        fill: #e4c080;
      }

      .cls-124 {
        fill: #f17aa9;
      }

      .cls-125 {
        fill: #f0d6be;
      }

      .cls-126 {
        fill: #e2e2e2;
      }

      .cls-127 {
        fill: #ffd08a;
      }

      .cls-128 {
        fill: #fcc693;
      }

      .cls-129 {
        fill: #eaeaea;
      }

      .cls-130 {
        fill: #f079a8;
      }

      .cls-131 {
        fill: #f0962a;
      }

      .cls-132 {
        fill: #f288b7;
      }

      .cls-133 {
        fill: #e8c380;
      }

      .cls-134 {
        fill: #f79941;
      }

      .cls-135 {
        fill: #f5f5f5;
      }

      .cls-136 {
        fill: #005e6d;
      }

      .cls-137 {
        fill: #0097b0;
      }

      .cls-138 {
        opacity: .2;
      }
    </style>
  </defs>
  <g id="Layer_4" data-name="Layer 4">
    <g id="laptop">
      <path class="cls-5" d="m1438.52,2043.52v-797.67c0-30.41-24.99-55.07-55.82-55.07H163.44c-30.83,0-55.82,24.65-55.82,55.07v797.67h1330.91Z"/>
      <rect class="cls-20" x="152.46" y="1242.07" width="1241.22" height="750.53"/>
      <rect class="cls-25" x="742.59" y="1200.84" width="60.95" height="30.25" rx="14.38" ry="14.38"/>
      <circle class="cls-110" cx="773.07" cy="1216.48" r="9.57" transform="translate(-406.68 388.44) rotate(-22.5)"/>
      <path class="cls-117" d="m0,2043.52v33.11c0,13.01,10.64,23.65,23.65,23.65h1498.83c13.01,0,23.65-10.64,23.65-23.65v-33.11H0Z"/>
      <path class="cls-94" d="m520.08,2043.52v4c0,13.41,10.97,24.38,24.38,24.38h457.22c13.41,0,24.38-10.97,24.38-24.38v-4h-505.98Z"/>
      <polygon class="cls-20" points="1137 1992.6 1393.68 1992.6 1393.68 1242.07 370.61 1242.07 1137 1992.6"/>
    </g>
    <g>
      <rect class="cls-117" x="2625.37" y="1739.72" width="370.77" height="341.73"/>
      <polygon class="cls-53" points="2996.14 1945.21 2625.37 1846.93 2625.37 1739.72 2996.14 1739.72 2996.14 1945.21"/>
      <path class="cls-117" d="m1908.99,658.99v1091.16c0,41.6,34.19,75.33,76.36,75.33h1667.88c42.17,0,76.36-33.73,76.36-75.33V658.99h-1820.6Z"/>
      <path class="cls-5" d="m3729.58,1676.97V585.81c0-41.6-34.19-75.33-76.36-75.33h-1667.88c-42.17,0-76.36,33.73-76.36,75.33v1091.16h1820.6Z"/>
      <rect class="cls-20" x="1970.33" y="580.63" width="1697.91" height="1026.68"/>
      <polygon class="cls-20" points="3317.12 1607.32 3668.24 1607.32 3668.24 580.63 2268.74 580.63 3317.12 1607.32"/>
      <rect class="cls-25" x="2777.6" y="524.23" width="83.37" height="41.38" rx="19.67" ry="19.67"/>
      <circle class="cls-110" cx="2819.29" cy="545.63" r="13.09" transform="translate(1640.51 3164.14) rotate(-76.72)"/>
      <path class="cls-135" d="m3172.77,2100.28v-24.64c0-12.02-9.83-21.85-21.85-21.85h-685.59c-12.02,0-21.85,9.83-21.85,21.85v24.64h729.29Z"/>
      <rect class="cls-76" x="2443.48" y="2099.93" width="729.29" height="18.83"/>
    </g>
    <g id="smartphone">
      <rect class="cls-117" x="1720.61" y="702.87" width="411.9" height="811.26" rx="74.51" ry="74.51"/>
      <rect class="cls-20" x="1741.09" y="776.86" width="370.93" height="663.28" rx="15.19" ry="15.19"/>
      <g>
        <rect class="cls-54" x="1869.43" y="1459.34" width="114.26" height="31.24" rx="15.19" ry="15.19"/>
        <path class="cls-89" d="m1968.5,1492.39h-83.88c-9.37,0-17-7.63-17-17v-.86c0-9.37,7.63-17,17-17h83.88c9.37,0,17,7.63,17,17v.86c0,9.37-7.63,17-17,17Zm-83.88-31.24c-7.38,0-13.38,6-13.38,13.38v.86c0,7.38,6,13.38,13.38,13.38h83.88c7.38,0,13.38-6,13.38-13.38v-.86c0-7.38-6-13.38-13.38-13.38h-83.88Z"/>
      </g>
      <g>
        <circle class="cls-25" cx="2013.61" cy="740.23" r="11.37"/>
        <circle class="cls-25" cx="1834.47" cy="740.23" r="6.34"/>
        <circle class="cls-25" cx="1986.92" cy="740.23" r="6.34"/>
        <path class="cls-74" d="m1966.02,745.63h-107.27c-2.97,0-5.4-2.43-5.4-5.4h0c0-2.97,2.43-5.4,5.4-5.4h107.27c2.97,0,5.4,2.43,5.4,5.4h0c0,2.97-2.43,5.4-5.4,5.4Z"/>
      </g>
      <path class="cls-20" d="m2112.02,1346.48v-554.42c0-8.36-6.84-15.19-15.19-15.19h-340.55c-8.36,0-15.19,6.84-15.19,15.19v49.26l370.93,505.16Z"/>
    </g>
    <g>
      <rect id="Paper" class="cls-117" x="2271.09" width="1122.57" height="1405.75"/>
      <g>
        <rect class="cls-96" x="2345.03" y="360.16" width="93.37" height="134.1"/>
        <rect class="cls-19" x="2466.21" y="299.8" width="93.37" height="194.45"/>
        <rect class="cls-134" x="2585.41" y="226.06" width="93.37" height="268.19"/>
        <rect class="cls-87" x="2345.03" y="509.28" width="333.75" height="9.52"/>
      </g>
      <g>
        <rect class="cls-87" x="2771.54" y="509.28" width="541.3" height="9.52"/>
        <g>
          <rect class="cls-14" x="2771.54" y="139.32" width="14.27" height="354.94"/>
          <rect class="cls-78" x="2790.31" y="159.7" width="14.27" height="334.55"/>
        </g>
        <g>
          <rect class="cls-18" x="2817.74" y="209.28" width="14.27" height="284.97"/>
          <rect class="cls-100" x="2836.51" y="194.55" width="14.27" height="299.7"/>
        </g>
        <g>
          <rect class="cls-73" x="2863.95" y="131.95" width="14.27" height="362.3"/>
          <rect class="cls-32" x="2882.72" y="172.87" width="14.27" height="321.39"/>
        </g>
        <g>
          <rect class="cls-116" x="2910.15" y="209.28" width="14.27" height="284.97"/>
          <rect class="cls-77" x="2928.92" y="194.55" width="14.27" height="299.7"/>
        </g>
        <g>
          <rect class="cls-11" x="2956.36" y="143.41" width="14.27" height="350.85"/>
          <rect class="cls-79" x="2975.13" y="119.68" width="14.27" height="374.58"/>
        </g>
        <g>
          <rect class="cls-12" x="3002.56" y="131.95" width="14.27" height="362.3"/>
          <rect class="cls-75" x="3021.33" y="139.32" width="14.27" height="354.94"/>
        </g>
        <g>
          <rect class="cls-60" x="3048.77" y="100.04" width="14.27" height="394.22"/>
          <rect class="cls-81" x="3067.54" y="119.68" width="14.27" height="374.58"/>
        </g>
        <g>
          <rect class="cls-111" x="3094.97" y="139.32" width="14.27" height="354.94"/>
          <rect class="cls-17" x="3113.74" y="221.96" width="14.27" height="272.29"/>
        </g>
        <g>
          <rect class="cls-102" x="3141.18" y="172.87" width="14.27" height="321.39"/>
          <rect class="cls-35" x="3159.95" y="159.7" width="14.27" height="334.55"/>
        </g>
        <g>
          <rect class="cls-30" x="3187.38" y="147.09" width="14.27" height="347.16"/>
          <rect class="cls-27" x="3206.15" y="209.28" width="14.27" height="284.97"/>
        </g>
        <g>
          <rect class="cls-95" x="3233.59" y="186.37" width="14.27" height="307.89"/>
          <rect class="cls-93" x="3252.36" y="159.7" width="14.27" height="334.55"/>
        </g>
        <g>
          <rect class="cls-132" x="3279.79" y="125.41" width="14.27" height="368.85"/>
          <rect class="cls-70" x="3298.56" y="117.63" width="14.27" height="376.62"/>
        </g>
      </g>
      <g>
        <path class="cls-121" d="m2607.4,759.75c0,17.77-3.53,34.71-9.93,50.17-19.7,47.56-66.57,81.02-121.25,81.02-72.45,0-131.18-58.73-131.18-131.18s58.73-131.18,131.18-131.18c26.25,0,50.7,7.71,71.21,21,8.05,5.21,15.5,11.29,22.2,18.09,1.74,1.75,3.42,3.55,5.04,5.4,8.82,10.01,16.14,21.37,21.6,33.74.07.16.14.33.21.49,4.67,10.68,7.95,22.09,9.62,34.02.85,6.02,1.29,12.18,1.29,18.44Z"/>
        <path class="cls-33" d="m2607.4,759.75c0,17.77-3.53,34.71-9.93,50.17l-121.25-50.17,21.87-21.21,76.6-33.88,21.81,2.63c4.67,10.68,7.95,22.09,9.62,34.02.85,6.02,1.29,12.18,1.29,18.44Z"/>
        <path class="cls-130" d="m2606.11,741.31l-129.9,18.44,93.42-92.09c1.74,1.75,3.42,3.55,5.04,5.4,8.82,10.01,16.14,21.37,21.6,33.74,4.78,10.82,8.14,22.4,9.84,34.51Z"/>
        <path class="cls-60" d="m2596.27,706.8l-120.06,52.95,71.21-110.19c10.13,6.56,19.3,14.48,27.25,23.5,8.82,10.01,16.14,21.37,21.6,33.74Z"/>
        <path class="cls-9" d="m2574.67,673.06l-98.46,86.69v-131.18c39.22,0,74.42,17.21,98.46,44.49Z"/>
      </g>
      <g>
        <path class="cls-126" d="m2834.52,836.18c-43.5,0-78.89-35.39-78.89-78.89s35.39-78.89,78.89-78.89,78.89,35.39,78.89,78.89-35.39,78.89-78.89,78.89Zm0-140.52c-33.98,0-61.63,27.65-61.63,61.63s27.65,61.63,61.63,61.63,61.63-27.65,61.63-61.63-27.65-61.63-61.63-61.63Z"/>
        <g>
          <path class="cls-116" d="m2963.36,751.63c-.43-9.48-1.87-18.76-4.28-27.74-5.31-19.8-15.32-38.08-29.47-53.49-1.26-1.38-2.56-2.73-3.89-4.06-7.77-7.77-16.35-14.42-25.55-19.88-.58-.35-1.17-.69-1.75-1.02-19.25-11.01-41.12-16.87-63.9-16.87-31.59,0-61.45,11.28-84.97,31.94-2.13,1.87-4.2,3.82-6.22,5.83-24.36,24.36-37.77,56.75-37.77,91.2,0,25.93,7.6,50.7,21.75,71.74,4.64,6.92,10,13.43,16.02,19.45,24.36,24.36,56.75,37.77,91.2,37.77,15.9,0,31.35-2.86,45.79-8.33,16.85-6.38,32.29-16.32,45.42-29.44,4.25-4.25,8.17-8.75,11.74-13.46,9.89-13.03,17.12-27.69,21.41-43.31,3.05-11.08,4.63-22.63,4.63-34.43,0-1.98-.05-3.95-.13-5.92Zm-98.77,84.05c-9.34,3.61-19.48,5.58-30.07,5.58-28.98,0-54.57-14.8-69.6-37.24-8.92-13.31-14.12-29.3-14.12-46.48,0-25.26,11.24-47.93,28.98-63.3,14.69-12.72,33.83-20.42,54.74-20.42,14.8,0,28.72,3.86,40.79,10.62.78.44,1.55.89,2.32,1.35,6.72,4.05,12.82,9.02,18.14,14.73,9.1,9.77,15.9,21.71,19.52,34.96,1.67,6.09,2.66,12.47,2.9,19.03.04,1,.05,2.01.05,3.02,0,7.79-1.07,15.33-3.07,22.48-2.85,10.22-7.6,19.65-13.83,27.89-9.35,12.38-22.06,22.09-36.76,27.76Z"/>
          <path class="cls-105" d="m2937.46,835.29c-3.56,4.71-7.49,9.21-11.74,13.46-13.12,13.12-28.57,23.06-45.42,29.44-14.44,5.48-29.89,8.33-45.79,8.33-34.45,0-66.84-13.42-91.2-37.77-6.02-6.02-11.38-12.54-16.02-19.45l37.62-25.26c15.03,22.44,40.62,37.24,69.6,37.24,10.59,0,20.73-1.98,30.07-5.58,14.7-5.68,27.41-15.38,36.76-27.76l36.11,27.37Z"/>
          <path class="cls-11" d="m2900.17,646.47l-22.54,39.33c-.76-.46-1.54-.91-2.32-1.35-12.08-6.76-25.99-10.62-40.79-10.62-20.91,0-40.05,7.71-54.74,20.42l-30.23-33.73c23.52-20.66,53.38-31.94,84.97-31.94,22.78,0,44.65,5.86,63.9,16.87.59.33,1.17.68,1.75,1.02Z"/>
          <path class="cls-102" d="m2963.5,757.55c0,11.8-1.57,23.35-4.63,34.43-5.85,21.27-17.13,40.75-33.15,56.77-13.12,13.12-28.57,23.06-45.42,29.44l-15.72-42.5c24.49-9.46,43.46-30.11,50.59-55.66,1.99-7.16,3.07-14.7,3.07-22.48,0-1.01-.02-2.02-.05-3.02l45.17-2.89c.09,1.96.13,3.93.13,5.92Z"/>
          <path class="cls-30" d="m2963.5,757.55c0,11.8-1.57,23.35-4.63,34.43l-43.69-11.95c1.99-7.16,3.07-14.7,3.07-22.48s-1.02-15.03-2.95-22.06c-3.62-13.25-10.42-25.19-19.52-34.96l33.84-30.12c14.15,15.41,24.16,33.69,29.47,53.49,2.91,10.84,4.42,22.13,4.42,33.66Z"/>
          <path class="cls-77" d="m2959.08,723.89l-43.79,11.6c-5.98-21.87-20.61-40.19-39.98-51.04l23.1-39.01c9.87,5.65,19.05,12.64,27.31,20.9,16.21,16.21,27.58,35.98,33.36,57.54Z"/>
        </g>
      </g>
      <g>
        <rect class="cls-87" x="2346.53" y="1301.43" width="965.33" height="9.52"/>
        <g>
          <polygon class="cls-114" points="2345.79 1285.7 3311.86 1285.7 3311.86 950.09 3123.05 1036.26 3082.59 1083.49 3037.85 1035.05 3001.22 1116.61 2932.5 1131.32 2860.92 1088.98 2801.98 1136.95 2725.26 1077.43 2678.78 1141.8 2584.41 1193.68 2546.18 1100.44 2490.13 1184.57 2438.4 1144.03 2378.67 1241.48 2345.79 1285.7"/>
          <polygon class="cls-98" points="2345.79 1285.7 3311.86 1285.7 3311.86 1066.54 3123.05 1185.2 3077.19 1145.24 3005.6 1176.12 2932.5 1154.93 2861.55 1203.37 2801.98 1158.56 2718.12 1236.06 2672.11 1185.2 2584.41 1245.75 2541.12 1215.47 2489.27 1240.9 2438.48 1230 2345.79 1285.7"/>
        </g>
      </g>
      <g>
        <path class="cls-73" d="m3300.43,767.47c-3.56,66.35-58.49,119.05-125.74,119.05s-125.93-56.38-125.93-125.92,56.38-125.93,125.93-125.93c16.14,0,31.57,3.04,45.76,8.57l-16.01,39.04-29.35,71.56-.72,1.83,87.03,8.14,39.02,3.65Z"/>
        <path class="cls-127" d="m3295.7,694.84l-114.68,54.36,48.32-114.34c28.76,11.22,52.38,32.71,66.36,59.97Z"/>
        <path class="cls-36" d="m3311.85,756.17c0,1.72-.04,3.44-.11,5.16l-128.16-9.03,114.46-53.51c8.82,17.21,13.8,36.71,13.8,57.38Z"/>
      </g>
    </g>
    <g>
      <g>
        <path class="cls-106" d="m2656.74,1770.99c12.96.21,31.8,25.98,22.38,74.69-9.42,48.72-11.01,53.43-9.92,60.5,1.09,7.07,11.98,22.97,14.34,43,2.36,20.03,3.53,131.96,10.6,145.21,0,0-11.49,7.95-26.8,0,0,0-33.28-165.53-35.35-178.49-2.06-12.96-28.87-145.8,24.74-144.92Z"/>
        <path class="cls-106" d="m2589.17,1739.49c20.59,4.04,27.73,58.85,4.19,143.05,0,0-4.95,17.46-5.54,26.59-.59,9.13,5.89,33.58,5.6,46.24-.29,12.67-10.31,53.02-13.84,67.75-3.53,14.73-12.37,84.53-12.37,84.53,0,0-18.26.29-26.8-10.01,0,0,8.25-170.54,9.13-187.04.88-16.49,8.25-124,10.31-134.61s3.88-41.5,29.33-36.51Z"/>
        <path class="cls-40" d="m2676.27,1644.78s22.29,41.26,20.18,83.92c-2.11,42.66-17.32,116.99-17.32,116.99,0,0-78.14,6.34-125.02-14.36,0,0-1.39-133.2,11.34-186.55,0,0,40.8,16.61,110.82,0Z"/>
        <path class="cls-106" d="m2490.45,1558.48s-51.22-14.78-55.87-21.54c-4.65-6.76-4.65-37.59-9.71-37.59s-6.34,21.54-6.34,21.54c0,0-24.5-10.36-30.41-15.32-5.91-4.96-5.07,28.31,0,34.06,5.07,5.75,27.03,18.42,35.9,18.84,8.87.42,54.29,31.47,54.29,31.47,0,0,13.94-10.35,12.13-31.47Z"/>
        <path class="cls-24" d="m2568.77,1468.44s-47.85,88.14-57.25,92.54c-5.6,2.62-12.35.09-21.08-2.5,0,0,1.47,17.34-12.13,31.47,0,0,31.62,17.44,48.17,4.94,16.55-12.5,50.01-69.49,55.89-79.42s15.41-32.28-13.59-47.02Z"/>
        <path class="cls-106" d="m2785.06,1537.33l41.71-40.75s-5.25-34.42.53-38.09c5.78-3.68,11.03,17.34,11.03,17.34,0,0,8.67-31.01,13.4-28.38s24.69,11.47,5.52,46.2c-19.18,34.73-50.6,70.21-50.6,70.21,0,0-18.89-5.48-21.58-26.52Z"/>
        <path class="cls-15" d="m2680.09,1510.92c15.17-2.7,45.86-18.88,27.99-41.47-17.87-22.59-19.89-14.16-20.57-34.05-.67-19.89-16.52-19.22-17.87-26.64-1.35-7.42-2.36-13.08,2.02-21.21s3.37-28.02-4.72-34.43c-8.09-6.41-13.43-8.82-17.62-19.22-2.15-5.33-16.77-13.15-30.6-3.03-13.82,10.12-19.32,0-29.55,2.7s-18.66,14.84-15.63,23.94c3.03,9.1,6.74,11.8,5.06,22.93-1.69,11.13-1.23,25.98,7.98,32.88,9.21,6.9,1.46,21.06-8.66,24.77-10.12,3.71-15.85,51.25,4.72,65.75s97.44,7.08,97.44,7.08Z"/>
        <path class="cls-106" d="m2635.57,1366.17s6.22,37.83-11.14,50.26c-17.36,12.44-25.13,11.92-33.68,7.51-8.55-4.4-5.44-67.1-3.11-68.4,2.33-1.3,36.01-20.99,47.93,10.62Z"/>
        <path class="cls-106" d="m2589.19,1461s18.1-3.99,18.4-19.69c.29-15.7-16.84-17.36-16.84-17.36,0,0,11.66-24.35,12.7-24.35s31.4-.9,31.4-.9c0,0,.73,26.03,6.69,36.91,5.96,10.88,16.32,18.14,16.32,18.14,0,0-1.68,34.76-36.01,39.9-35.85,5.37-32.65-32.65-32.65-32.65Z"/>
        <path class="cls-15" d="m2641.14,1392.73c-5.4,1.38-14.29-.9-18.16-7.51-4.7-8.02,2.5-19.77-5.01-21.65-7.51-1.88-7.13.13-14.89.63-7.76.5-18.27-5.76-17.39-10.14s7.51-15.64,26.65-12.76c19.15,2.88,29.03,4.25,35.54,18.02,6.51,13.76,11.89,36.66,2.88,37.67-9.01,1-9.62-4.25-9.62-4.25Z"/>
        <path class="cls-106" d="m2632.71,1388.69s3.89-9.94,11.38-10.17c7.49-.23,3.76,11.86.45,14.98s-14.18,9.43-14.18,9.43l2.35-14.24Z"/>
        <path class="cls-44" d="m2657.85,1453.74s-9.72,37.97-39.82,39.76c-30.1,1.79-28.84-32.51-28.84-32.51,0,0-12.06,5.3-17.9,4.85-5.84-.45-17.31,58.22-13.71,69.68,3.6,11.46,17.76,25.4,18.43,37.76.67,12.36-10.56,71.48-10.56,71.48,0,0,52.82,20.23,110.82,0,0,0-13.04-42.26-6.07-66.98,6.97-24.73,20.68-54.17,21.13-74.4.45-20.23-3.33-50.74-33.47-49.64Z"/>
        <path class="cls-44" d="m2680.24,1461.86s62.56,71.65,75.37,77.04c12.81,5.39,15.73,6.74,29.45-1.57,0,0,8.59,18,21.58,26.52,0,0-25.85,26.75-39.11,26.07-13.26-.67-82.01-58.14-82.01-58.14l-12.4-43.46,7.12-26.46Z"/>
        <path class="cls-34" d="m2567.2,2107.66s4.65,18.11.77,20.53c-3.88,2.43-13.58-1.7-20.13.36-6.55,2.06-23.53,6.79-44.64,5.22s-22.18-4.07-21.21-8.08c.97-4,26.56-12.54,40.2-19.09,13.64-6.55,18.21-8.96,18.21-8.96,0,0,11.45,8.7,26.8,10.01Z"/>
        <path class="cls-34" d="m2694.15,2094.4s7.13,12.9,3.99,21.46-19.13,10.28-27.69,16.27c-8.57,6-23.13,12.64-37.97,10.6-14.85-2.04-12.28-9.46-3.43-14.03,8.85-4.57,23.41-12.56,27.41-17.7s10.89-16.6,10.89-16.6c0,0,8.54,3.67,26.8,0Z"/>
      </g>
      <g>
        <path class="cls-20" d="m3030.35,1698.46s-19.21,169.55-36.86,215.23c0,0-.9,52.37-3.11,71.64-4.25,37.07-21.52,85.85-21.83,94.48,0,0-17.62,5.71-25.93-2.6,0,0,7.27-150.54,6.23-166.63s-4.62-69.23,12.51-216.33l68.99,4.21Z"/>
        <path class="cls-20" d="m3079.29,1689.49s-58.23,6.91-78.68,4.75c0,0-2.91,140.68,17.39,223.11,0,0,1.23,33.84,3.69,43.06,2.46,9.23,18.26,124.88,18.26,124.88,0,0,19.67,4.92,26.85,0,0,0,13.33-91.66,8.41-115.04-4.92-23.38-13.01-49.83-13.01-49.83,0,0,8.93-41.43,13.63-66.44,4.7-25.01,13.08-116.77,3.47-164.5Z"/>
        <path class="cls-92" d="m2993.6,1431.94c-9.42-3.7-22.61-10.61-23.24-23.49-.63-12.88,2.51-47.51,9.42-56.89,6.91-9.38,38.31-19.02,61.87-8.39,23.55,10.63,27.64,36.11,28.27,42.06.63,5.95,1.26,23.85,10.05,30.13,8.79,6.28,20.73,16.33,25.75,28.58,5.02,12.25.31,23.36,1.57,33.35,1.26,9.99,17.9,37,29.52,44.85,11.62,7.85,16.33,62.18-25.12,88.88-41.46,26.69-77.89,17.59-91.39,11.62-13.5-5.97-27.01-65.64-20.1-90.76,6.91-25.12,17.43-89.19,17.43-89.19l-24.03-10.74Z"/>
        <path class="cls-106" d="m2993.6,1435.46s16.02,21.79,16.33,41.83c0,0,13.5,11.47,28.26-.58l.33-9.77-15.91-49.51-29.02,18.03Z"/>
        <path class="cls-106" d="m3014.01,1348.47c-14.12-.65-30.46,1.26-32.98,16.33-2.51,15.07-7.22,51.38,0,67.14,7.22,15.77,39.89,2.99,47.74-5.7,7.85-8.69,26.38-75.89-14.76-77.78Z"/>
        <path class="cls-92" d="m3036.47,1447.64c-.19-1.12-15.37-31.48-24.55-36.35-9.18-4.87-19.86-11.24-20.61-20.8-.75-9.56,5.43-26.98-10.87-31.86,0,0,10.12-21.3,45.91-10.27,35.79,11.02,18.74,63.49,16.68,70.42-2.06,6.93-6.56,28.86-6.56,28.86Z"/>
        <path class="cls-69" d="m2968.55,1693.29s70.6,13.85,110.74-3.8c.15-.07.3-.14.45-.2l-.71-2.22-.02-.04c-2.09-5.51-15.1-41.26-12.87-70.56,2.42-31.84,12.81-69.22,12.81-69.22,0,0,9.34-51.21,9.34-52.25s-16.96-15.23-16.96-15.23l-32.8-12.83s-4.63,12.81-17.31,13.74c-12.69.93-11.72-8.75-11.72-8.75,0,0-20.51,9.17-33.51,13.43l9.51,111.72-16.96,96.2Z"/>
        <path class="cls-124" d="m3009.31,1470.69s-6.93,26.55-8.06,59.05c-1.13,32.5,1.29,104.58-.97,121.15-2.25,16.57-13.35,124.85-24.13,145.12s-24.78,33.79-32.18,36.68c0,0,.64-81.73,8.04-108.44,7.4-26.71,21.56-87.36,23.17-114.39s-11.38-42.46-11.93-54.84c-.82-18.66,5.29-30.75,5.29-30.75,0,0-61.26,14.32-76.06,14.8-14.8.48-29.12-3.7-37.81-12.07-8.69-8.37-51.16-79.36-51.16-79.36l15.77-12.83s44.89,58.4,51.81,64.36c6.92,5.95,10.62,9.17,24.78,6.92,14.16-2.25,113.44-35.4,113.44-35.4Z"/>
        <path class="cls-124" d="m3038.53,1466.94s-13.01,55.18-13.01,88.87.94,126.54,0,149.35c-.94,22.82,5.15,130.89,52.87,138.84,0,0,16.33-101.87,4.19-155.97-12.14-54.1-21.5-98.08,2.36-135.97,23.86-37.9,12.21-64.34,2.13-69.13s-24.25-8.05-31.74-10.44-16.8-5.55-16.8-5.55Z"/>
        <path class="cls-124" d="m3077.97,1497.36c5.39-6.35,12.93-11.4,17.41-4.91,4.48,6.49,64.78,93.13,68.9,104.87,4.13,11.74,8.89,27.29-5.08,40.62-13.96,13.33-70.45,49.19-70.45,49.19l-13.96-16.5s52.04-39.03,53.63-49.19c1.59-10.16,1.76-18.41-1.97-23.01s-61.81-69.02-59.59-78.86c2.22-9.84,11.11-22.21,11.11-22.21Z"/>
        <path class="cls-106" d="m2803.52,1447.64s-16.19-9.74-17.68-17.64,2.68-18.78.89-27.58c-1.79-8.8-10.58-24.75-8.8-26.24,1.79-1.49,5.96.15,10.29,5.96,4.32,5.81,23.41,25.64,26.54,35.03,3.13,9.39,4.53,17.64,4.53,17.64l-15.77,12.83Z"/>
        <path class="cls-106" d="m3074.79,1670.63s-17.18,9.92-18.33,17.58c-1.15,7.65,6.31,29.27,12.44,29.66,6.12.38,2.42-15.07,5.9-19.4s13.96-11.33,13.96-11.33l-13.96-16.5Z"/>
        <path class="cls-122" d="m2988.77,2139.18c1.65,2.54,26.34,4.32,41.58,4.59,15.24.28,39.91-1.1,42.37-4.59.84-1.19.43-7.74-.48-15.9-1.78-15.94-5.45-37.98-5.45-37.98-9.49,1.89-26.85,0-26.85,0,0,0,.68,23.35-.97,30.54-.88,3.85-11.07,7.42-21.25,10.25-8.82,2.45-17.65,4.32-20.45,5.34-6.04,2.19-10.15,5.21-8.51,7.75Z"/>
        <path class="cls-49" d="m2988.77,2139.18c1.65,2.54,26.34,4.32,41.58,4.59,15.24.28,39.91-1.1,42.37-4.59.84-1.19.43-7.74-.48-15.9-1.74,2.1-4.33,3.22-6.29,3.91-7.72,2.71-32.59,7.63-48.23-1.1-8.82,2.45-17.65,4.32-20.45,5.34-6.04,2.19-10.15,5.21-8.51,7.75Z"/>
        <path class="cls-122" d="m2888.47,2131.54c1.59,2.44,25.36,4.16,40.03,4.42,14.67.27,38.41-1.06,40.79-4.42.81-1.14.41-7.45-.46-15.3-1.71-15.34-.28-36.43-.28-36.43-9.14,1.82-25.93-2.6-25.93-2.6,0,0-4.24,24.95-5.82,31.86-.85,3.71-10.65,7.15-20.46,9.86-8.49,2.35-16.99,4.16-19.68,5.14-5.81,2.11-9.77,5.02-8.19,7.46Z"/>
        <path class="cls-49" d="m2888.47,2131.54c1.59,2.44,25.36,4.16,40.03,4.42,14.67.27,38.41-1.06,40.79-4.42.81-1.14.41-7.45-.46-15.3-2.5,2.37-4.11,3.32-6.05,3.76-11.29,2.57-31.37,7.35-46.43-1.06-8.49,2.35-16.99,4.16-19.68,5.14-5.81,2.11-9.77,5.02-8.19,7.46Z"/>
      </g>
      <g>
        <path class="cls-21" d="m1939.18,1701.26l-12.62,179.38,9.99,223.77h30.47s34.88-133.21,7.04-213.95l27.85-193.28-62.72,4.08Z"/>
        <path class="cls-38" d="m2035.13,1697.18s6.53,14.36,0,56.99c-6.53,42.64-20.88,120.52-20.88,120.52,0,0,25.67,25.67,31.76,61.35,6.09,35.68,13.92,168.37,13.92,168.37h-30.46s-49.17-180.12-74.4-228.41c-.47-.91,0-2.18,0-2.18l-1.74-176.64h81.79Z"/>
        <path class="cls-106" d="m1838.73,1567.34s-3.22-25.41-9.68-28.07-5.32,20.01-5.32,20.01c0,0-14.44-15.83-19.38-16.59-4.94-.76-15.58,17.1-13.68,23.18,1.9,6.08,17.16,20.1,34.62,21.64,17.45,1.54,13.45-20.18,13.45-20.18Z"/>
        <path class="cls-47" d="m1981.91,1495.71c-10.74-5.87-23.66,15.24-42.29,43.69-18.63,28.46-35.18,54.33-100.89,27.94,0,0-5.69,16.56-13.45,20.18,0,0,51.08,41.87,82.27,35.7,31.18-6.17,53.81-36.74,70.37-66.74,16.56-30.01,18-53.11,4-60.77Z"/>
        <path class="cls-106" d="m1946.28,1354.14s-4.29,10.61-4.29,27.02-7.58,26.01-7.58,26.01l9.77,3.88s-.18,23.14,9.67,23.14,36.36-2.78,36.36-26.01,3.54-54.04-43.94-54.04Z"/>
        <path class="cls-106" d="m1960.76,1433.79c.46-.05,14.35,4.5,15.38,14.05,1.03,9.54,2.87,26.21,2.87,26.21l39.21-2.3-8.74-75.04-50.47,5.25,1.75,31.83Z"/>
        <path class="cls-31" d="m2013.85,1434.19s-19.08-6.7-24.71-34.06c0,0-8.39-6.32-6.21-16.44s-6.21-3.68-10.69-5.75-2.76-9.43-9.2-9.08-9.89,10.23-22.65,3.56c-12.76-6.67-11.04-29.2-7.01-32.65s11.27-8.62,24.37-8.51l-9.89,7.93s8.85-2.76,18.74-2.53c9.89.23,22.02-10.69,22.02-10.69,0,0-1.55,12.19-12.59,17.71,0,0,18.97-6.21,26.9-1.26,7.93,4.94,9.66,7.93,9.66,7.93,0,0,20.81-2.53,20.81,16.79s-9.43,38.86-12.99,44.49-6.56,22.57-6.56,22.57Z"/>
        <path class="cls-106" d="m1986.49,1402.54s2.41-17.13,13.68-17.02c11.27.11,6.55,20.81-5.06,22.19-11.61,1.38-8.62-5.17-8.62-5.17Z"/>
        <path class="cls-109" d="m1996.38,1478.98c-14.81-2.77-34.78,5.22-42.9,35.68-8.12,30.46-15.37,66.42-14.5,83.53.87,17.11-2.03,51.05-8.99,63.52-6.96,12.47-4.64,42.93,19.43,44.67,24.07,1.74,39.16,6.09,42.93,8.7,3.77,2.61,45.25,10.73,56.56-10.15,11.31-20.88-.87-47.28,0-58.59.87-11.31,14.5-87.89,6.09-109.35-8.41-21.46-18.33-50.47-58.62-58.01Z"/>
        <path class="cls-47" d="m1967.16,1481.67c-1.92-3.05,15.07-16.68,31.11-20.69s57.25-4.01,77.13,19.24c19.88,23.25-12.54,56.74-22.38,51.7-9.85-5.04-23.78-44.62-44.79-48.95-21.01-4.33-34.77,4.72-37.76,2.83-2.99-1.89-3.31-4.14-3.31-4.14Z"/>
        <path class="cls-106" d="m1944.97,1696.05s-24.1-11.58-30.5-7.2c-6.4,4.38,13.97,17.17,13.97,17.17,0,0-32.82,4.21-32.15,8.58.67,4.38,9.45,23.73,24.33,21.38,14.89-2.36,28.39-3.81,38.39-10.83,0,0,4.21-13.77-14.04-29.1Z"/>
        <path class="cls-47" d="m1990.27,1495.71c-16.04,6.96-7.58,52.1-4.13,61.03,3.45,8.93,22.08,48.9,16.64,71.4-5.43,22.51-3.49,42.3-57.82,67.91,0,0,13.34,14.75,14.04,29.1,0,0,81.46-38.03,98.71-68.69,17.25-30.66,7.55-80.33-5.65-106.33-13.19-26-34.74-66.17-61.8-54.43Z"/>
        <path class="cls-99" d="m2059.93,2104.41l4.71,21.28c1.2,5.41-2.92,10.53-8.46,10.53h-76.38s-6.21-2.82-1.69-5.36c4.51-2.54,51.36-26.45,51.36-26.45h30.46Z"/>
        <path class="cls-99" d="m1967,2104.41l4.72,21.31c1.19,5.39-2.91,10.51-8.43,10.51h-76.41s-6.21-2.82-1.69-5.36c4.51-2.54,51.36-26.45,51.36-26.45h30.46Z"/>
      </g>
      <g>
        <path class="cls-63" d="m2288.66,1955.31c-20.85,5.35-42.72,5.35-63.58,0-.67,2.63-1.35,5.25-2.02,7.88,22.18,5.69,45.44,5.69,67.62,0-.67-2.63-1.35-5.25-2.02-7.88Z"/>
        <g>
          <path class="cls-113" d="m2221.28,1957.83l-11.51-1.06-14.46,156.2s-.6,12.32,2.35,14.22l8.06-1.28,15.56-168.07Z"/>
          <path class="cls-52" d="m2220.8,1961.8l-3.51,12.71c-4.35-1.46-8.47-1.7-11.56-1.57l3.94-14.22,11.14,3.08Z"/>
          <path class="cls-113" d="m2217.29,1974.51l-45.29,163.65h-8.2c-2.52-2.52.51-15.54.51-15.54l41.42-149.68c3.09-.14,7.21.11,11.56,1.57Z"/>
          <polygon class="cls-52" points="2220.8 1961.8 2203.53 2024.19 2217.23 2001.61 2220.8 1961.8"/>
        </g>
        <g>
          <path class="cls-113" d="m2294.77,1957.83l11.51-1.06,14.46,156.2s.6,12.32-2.35,14.22l-8.06-1.28-15.56-168.07Z"/>
          <path class="cls-52" d="m2295.25,1961.8l3.51,12.71c4.35-1.46,8.47-1.7,11.56-1.57l-3.94-14.22-11.14,3.08Z"/>
          <path class="cls-113" d="m2298.76,1974.51l45.29,163.65h8.2c2.52-2.52-.51-15.54-.51-15.54l-41.42-149.68c-3.09-.14-7.21.11-11.56,1.57Z"/>
          <polygon class="cls-52" points="2295.25 1961.8 2312.51 2024.19 2298.82 2001.61 2295.25 1961.8"/>
        </g>
        <path class="cls-63" d="m2322.47,1951.04v8.13c-10.68,0-21.36,1.34-31.79,4.01-.68-2.63-1.35-5.25-2.02-7.88,11.09-2.84,22.45-4.27,33.81-4.27Z"/>
        <path class="cls-63" d="m2191.27,1951.04v8.13c10.68,0,21.36,1.34,31.79,4.01.68-2.63,1.35-5.25,2.02-7.88-11.09-2.84-22.45-4.27-33.81-4.27Z"/>
        <path class="cls-80" d="m2256.87,1959.42c5.46,0,17.65.23,32.74-4.25,9.89-2.93,24.18-3.88,32.86-3.97,5.93-.06,10.87,1.65,10.87,1.65,6.02-20.9-2.76-39.76-7.78-57.49-5.46-19.26,5.13-39.12,13.83-56.45,8.7-17.33,10.24-38.05-6.05-48.65-16.29-10.59-44.68,3.67-76.47,3.67s-60.18-14.26-76.47-3.67c-16.29,10.59-14.75,31.31-6.05,48.65,8.7,17.33,19.29,37.19,13.83,56.45-5.02,17.73-13.8,36.59-7.78,57.49,0,0,4.93-1.71,10.87-1.65,8.68.09,22.97,1.04,32.86,3.97,15.09,4.48,27.29,4.25,32.74,4.25Z"/>
        <path class="cls-62" d="m2256.87,1951.04s51.97,1.85,63.23-6.59c17.75-13.31-6.74-34.81-3.85-64.5,2.4-24.66,11.27-50.67,3.85-68.36-12.52-29.85-40.92-4.49-63.23-4.49s-50.71-25.36-63.23,4.49c-7.42,17.69,1.45,43.71,3.85,68.36,2.89,29.69-21.61,51.19-3.85,64.5,11.26,8.44,63.23,6.59,63.23,6.59Z"/>
        <path class="cls-58" d="m2258.56,1960.38c-.33,0-.65,0-.95,0h-.74s-.74,0-.74,0c-6.05,0-18.68.03-34.2-4.57-8.6-2.55-21.94-3.56-30.75-3.65-.07,0-.14,0-.21,0-4.26,0-7.93,1.28-7.96,1.29-4,1.41-8.4-.66-9.84-4.64-1.44-3.99.6-8.38,4.58-9.84.64-.24,6.46-2.28,13.59-2.22,4.99.05,22.24.51,34.97,4.29,13.35,3.96,24.45,3.93,29.79,3.94h.76s.76,0,.76,0c5.33,0,16.43.03,29.79-3.93,12.73-3.78,29.99-4.24,34.97-4.29,7.1-.06,12.95,1.98,13.6,2.22,4,1.46,6.05,5.89,4.58,9.88-1.46,3.98-5.86,6.04-9.85,4.6-.14-.05-3.89-1.38-8.18-1.29-8.81.09-22.15,1.1-30.75,3.65-14.74,4.37-26.87,4.57-33.24,4.57Z"/>
      </g>
      <g>
        <path class="cls-21" d="m2184.92,1874.13s-63.65,8.96-69.25,37.56c-4.34,22.17,83.42,46.45,139.08,31.93,0,0,89.22,27.83,149.45-38.81,0,0-21.28-35.04-77.82-28.66-56.54,6.39-141.46-2.02-141.46-2.02Z"/>
        <path class="cls-20" d="m2256.43,1654.88c14.86,0,60.75,1.12,78.02,11.66,17.26,10.54,65.46,98.19,65.46,98.19,0,0-30.94,2.91-39.46,11.21l-23.32-30.71-10.76,130.92s-37.44,12.33-66.13,12.33-75.33-14.35-75.33-14.35l-4.48-135.41-36.54,44.39s-25.78-15.02-34.3-13.9c0,0,32.06-75.77,64.12-95.73,32.06-19.95,82.72-18.61,82.72-18.61Z"/>
        <path class="cls-106" d="m2109.59,1769.21s-17.31,40.28-1.26,46.97c16.05,6.69,28.49,6.93,46.15,2.8,17.66-4.14,68.62-15.57,68.62-15.57,0,0-10.31-15.05-6.56-24.28l-74.1,7.22,1.45-3.24s-17.39-14.58-34.3-13.9Z"/>
        <path class="cls-106" d="m2399.91,1764.73s16.78,44.77.72,51.45c-16.05,6.69-28.49,6.93-46.15,2.8s-68.62-15.57-68.62-15.57c0,0,10.31-15.05,6.56-24.28l74.1,7.22-6.07-10.41s22.54-11.89,39.46-11.21Z"/>
        <path class="cls-129" d="m2325.26,1821.44h-136.17c-2.76,0-5.01-2.26-5.01-5.01l-9.79-90.4c0-2.76,2.26-5.01,5.01-5.01h155.74c2.76,0,5.01,2.26,5.01,5.01l-9.79,90.4c0,2.76-2.26,5.01-5.01,5.01Z"/>
        <path class="cls-38" d="m2134.16,1894.79c23.35-6.01,62.58,20.73,59.22,73.34-3.36,52.61,5.15,129.27,5.15,129.27,0,0-28.55-7.75-43.1,3.54,0,0-31.34-97.57-36.1-133.96-4.76-36.38-13.43-64.93,14.83-72.2Z"/>
        <path class="cls-99" d="m2198.53,2097.4c.31.71,14.82,34.79,3.35,40.53-11.47,5.74-59.9,4.05-62.93,1.01s-6.92-7.93-2.36-14.17c4.56-6.24,18.85-23.82,18.85-23.82,0,0,6.29-6.72,20.29-7.73,14-1.01,22.8,4.18,22.8,4.18Z"/>
        <path class="cls-38" d="m2388.75,1894.79c-23.35-6.01-62.58,20.73-59.22,73.34,3.36,52.61-5.15,129.27-5.15,129.27,0,0,28.55-7.75,43.1,3.54,0,0,31.34-97.57,36.1-133.96,4.76-36.38,13.43-64.93-14.83-72.2Z"/>
        <path class="cls-99" d="m2324.38,2097.4c-.31.71-14.82,34.79-3.35,40.53,11.47,5.74,59.9,4.05,62.93,1.01,3.04-3.04,6.92-7.93,2.36-14.17-4.56-6.24-18.85-23.82-18.85-23.82,0,0-6.29-6.72-20.29-7.73-14-1.01-22.8,4.18-22.8,4.18Z"/>
        <path class="cls-125" d="m2229.5,1637.9h51.61v17.8c0,14.24-11.56,25.81-25.81,25.81h0c-14.24,0-25.81-11.56-25.81-25.81v-17.8h0Z"/>
        <path class="cls-43" d="m2253.62,1630.98c-8.96-.51-34.56-4.21-39.38-13.15-4.83-8.94-17.45-40.67-.8-54.34,0,0-1.93-16.65,37.69-16.65s55.04,25.07,44.17,67.66c0,0-17.1,17.88-41.68,16.48Z"/>
        <path class="cls-106" d="m2253.89,1660.08v-.11c-20.39,0-37.35-21.67-37.35-42.06v-37.87c0-7.83,6.41-14.24,14.24-14.24h45.68c7.83,0,14.24,6.41,14.24,14.24v37.87c0,20.39-16.42,42.18-36.81,42.18Z"/>
        <path class="cls-106" d="m2220.07,1615.68s-6.08-10.34-11.35-4.06c-5.27,6.29,4.26,22.3,12.57,21.9l-1.22-17.84Z"/>
        <path class="cls-106" d="m2286.47,1615.68s6.08-10.34,11.35-4.06c5.27,6.29-4.26,22.3-12.57,21.9l1.22-17.84Z"/>
        <path class="cls-43" d="m2216.54,1604.52c0-.53,1.11-17,6.72-24.54,0,0,28.05,22.26,70.29,0,0,0-1.93-21.56-21.91-21.03-19.98.53-50.83,4.73-51.36,4.91-.53.18-6.04,10.69-6.04,10.69l2.3,29.97Z"/>
      </g>
      <g>
        <path class="cls-26" d="m1783.26,1905.63s-1.15,35.39,8.07,51.37c9.22,15.98,12.6,72.52,12.6,72.52,0,0,19.05,5.53,28.27,1.23l-3.67-120.83s-31.44-1.52-45.26-4.29Z"/>
        <path class="cls-136" d="m1803.92,2029.52s-7.95,9.98-3.85,16.01c4.1,6.03,22.18,19.29,41.71,21.94,19.53,2.65,37.61,6.51,42.68,2.17,5.06-4.34-11.33-7.96-22.66-14.95-11.33-6.99-29.61-23.94-29.61-23.94l-28.27-1.23Z"/>
        <path class="cls-50" d="m1665.03,1889.7s125.69,30.39,132.75,46.98c7.07,16.59,36.87,150.61,36.87,150.61,0,0-15.06,14.14-31.96,7.07,0,0-15.36-57.46-19.97-64.84-4.61-7.38-23.35-39.64-20.9-64.53,0,0-142.89-.92-148.73-35.34-5.84-34.42,51.93-39.95,51.93-39.95Z"/>
        <path class="cls-136" d="m1802.69,2094.36s-4.87,20.85,5.18,26.39,52.48,16.4,73.94,12.06c21.46-4.34,21.22-11.33,13.5-16.4-7.72-5.06-60.66-29.12-60.66-29.12,0,0-10.78,12.26-31.96,7.07Z"/>
        <path class="cls-92" d="m1723.99,1619.48c5.43-2.39,12.8-6.5,14.28-16.96,1.48-10.46,1.78-16.57,1.95-19.77.26-4.83-6.19-34.81-46.34-35.88-40.15-1.07-39.94,45.49-41,54.24-1.07,8.76-11.11,56.38-27.12,62.15,0,0,.21,9.4,26.7,7.26s56.59-39.72,56.59-39.72l14.95-11.31Z"/>
        <path class="cls-137" d="m1716.64,1746.52s-.79,29.12,15.88,33.09,32.3,7.94,32.3,7.94c0,0-7.94,11.38-6.09,22.77,0,0-37.59,6.62-50.96-4.77-13.37-11.38-17.87-50.3-17.87-50.3l26.74-8.74Z"/>
        <path class="cls-97" d="m1658.9,1637.98s-21.92,18.61-37.4,23.99c-15.48,5.38-11.83,48.82-9.68,73.12,2.15,24.3-16.56,146.45-20.64,148.38,0,0,94.41,1.72,128.81-28.39,0,0-20-43.87-6.45-112.9,13.55-69.03-29.24-83.87-29.24-83.87l-25.39-20.33Z"/>
        <path class="cls-104" d="m1684.98,1654.68s24.35,11.73,28.87,25.91c4.52,14.18,10.25,46.89,6.14,75.72-4.11,28.82-7.69,85.06,10.69,97.37,0,0-13.71,12.62-23.99,12.31,0,0-21.5-22.43-18.07-63.41,3.43-40.97,7.01-69.64,4.99-88.49-2.03-18.85-8.62-59.41-8.62-59.41Z"/>
        <path class="cls-106" d="m1764.82,1787.55l50.96,7s-8.58,12.62-6.83,17.68l-50.22-1.91s-3.11-11.64,6.09-22.77Z"/>
        <path class="cls-26" d="m1589.74,1886.63s179.12-51.32,197.27-50.4c18.15.92,34.42,3.91,37.81,12.29,7.07,17.47,3.7,61.39,3.7,61.39,0,0-33.51,6.21-44.88,1.6,0,0-2.18-9.83,3.36-15.67,0,0-124.68,63.61-158.67,51.63-33.99-11.98-36.75-30.42-38.6-60.84Z"/>
        <path class="cls-106" d="m1681.23,1598.15c-2.46,10.77-8.27,49.61,14.7,56.04,22.97,6.43,41.34-51.45,40.88-74.88-.46-23.43-48.23-13.32-55.58,18.83Z"/>
        <path class="cls-92" d="m1678.72,1606.04c.67.18,11.5,3.26,22.77-3.62,11.27-6.88,13.17-18.74,19.76-20.93,6.59-2.2,15.56,0,15.56,0,0,0,3.76-15.52-11.32-19.18-15.08-3.66-53.35,10.39-53.98,25.91-.62,15.52,7.2,17.82,7.2,17.82Z"/>
        <path class="cls-106" d="m1687.71,1608.54c-.28-1.4,2.25-19.94-10.39-15.16-12.64,4.77-1.65,28.92,5.21,25.84s5.18-10.67,5.18-10.67Z"/>
        <path class="cls-106" d="m1697.1,1648.82l-18.38,13.63s-12.53-1.08-19.82-24.47l21.96-25.47s-4.98,25.62,16.25,36.3Z"/>
        <path class="cls-104" d="m1658.9,1637.98s10.55,32.39,11.18,65.72c.62,33.34-12.72,100.64-12.59,123.39.13,22.75,2.93,44.24,2.93,44.24,0,0-29.91,24.93-73.85,25.86,0,0,1.87-22.12,7.79-45.49,5.92-23.37,14.33-100.02,13.4-112.79-.93-12.78-4.67-64.55,8.1-76.05,12.77-11.5,43.04-24.88,43.04-24.88Z"/>
        <path class="cls-137" d="m1629.52,1660.33c10.03,2.67,12.72,23.97,4.51,47.01-8.21,23.03-21.44,56.78-19.06,61.62,2.38,4.84,15.88,12.78,15.88,12.78,0,0-12.44,11.65-12.97,28.59,0,0-33.89-.53-40.77-18.27-6.88-17.74,16.41-97.69,16.41-97.69,0,0,15.08-39.59,35.99-34.03Z"/>
        <path class="cls-106" d="m1630.86,1781.73s55.45,20.12,66.25,18.8c10.8-1.32,22.99-12.18,33.57-11.38,10.58.79,18.26,4.77,18.26,21.18,0,0-7.82,5.56-12.12,3.44s-1.38-13.24-3.24-12.97c-1.85.26-16.82,19.86-25.75,18.53-8.93-1.32-17.93-5.56-17.93-5.56l-72.01-3.44s-.79-18.8,12.97-28.59Z"/>
        <path class="cls-53" d="m1808.73,1823.6h-95.27c-2.38,0-4.33-1.95-4.33-4.33h0c0-2.38,1.95-4.33,4.33-4.33h95.27c2.38,0,4.33,1.95,4.33,4.33h0c0,2.38-1.95,4.33-4.33,4.33Z"/>
        <path class="cls-129" d="m1893.45,1823.6h-93.34c-.09,0-.17,0-.25-.01-1.37-.16-2.14-1.68-1.61-2.95l40.12-95.33c0-1.2.99-2.19,2.19-2.19h93.34c1.2,0,2.19.99,2.19,2.19l-40.45,96.11c0,1.2-.99,2.19-2.19,2.19Z"/>
      </g>
      <g id="chair-side">
        <path class="cls-67" d="m1532.4,1872.76h32.76c7.21,0,8.14-5.53,7.5-12.71l-5.27-112.55h-21.57c-7.41,0-13.42,6.01-13.42,13.42v111.83Z"/>
        <rect class="cls-65" x="1532.4" y="1948.86" width="222.75" height="35.44" transform="translate(3287.56 3933.16) rotate(180)"/>
        <rect class="cls-7" x="1532.4" y="1980.2" width="222.75" height="4.1" transform="translate(3287.56 3964.5) rotate(180)"/>
        <rect class="cls-133" x="1722.96" y="1984.3" width="32.19" height="149.51" transform="translate(3478.12 4118.11) rotate(180)"/>
        <path class="cls-133" d="m1532.4,1747.51h32.19v374.29c0,6.63-5.38,12.01-12.01,12.01h-20.19v-386.3h0Z" transform="translate(3097 3881.32) rotate(180)"/>
        <path class="cls-119" d="m1735.17,1963.04c0,1.96,1.59,3.54,3.54,3.54s3.54-1.59,3.54-3.54-1.59-3.54-3.54-3.54-3.54,1.59-3.54,3.54Z"/>
        <path class="cls-119" d="m1545.29,1963.04c0,1.96,1.59,3.54,3.54,3.54s3.54-1.59,3.54-3.54-1.59-3.54-3.54-3.54-3.54,1.59-3.54,3.54Z"/>
        <path class="cls-119" d="m1545.29,1849.92c0,1.96,1.59,3.54,3.54,3.54s3.54-1.59,3.54-3.54-1.59-3.54-3.54-3.54-3.54,1.59-3.54,3.54Z"/>
        <path class="cls-119" d="m1545.29,1781.23c0,1.96,1.59,3.54,3.54,3.54s3.54-1.59,3.54-3.54-1.59-3.54-3.54-3.54-3.54,1.59-3.54,3.54Z"/>
      </g>
      <g id="desk_1" data-name="desk 1">
        <rect class="cls-82" x="2245.46" y="1360.05" width="23.85" height="993.41" transform="translate(400.63 4114.14) rotate(-90)"/>
        <rect class="cls-123" x="1707.47" y="1821.44" width="1095.23" height="23.39" rx="7.11" ry="7.11"/>
        <rect class="cls-61" x="1736.83" y="1844.83" width="23.85" height="288.98"/>
        <rect class="cls-61" x="2754.09" y="1844.83" width="23.85" height="288.98"/>
      </g>
      <g>
        <g>
          <path class="cls-112" d="m2616.35,1753.14s13.04-37.51,44.85-15.84c0,0-26.07-58.78-55.8,18.25l10.95-2.41Z"/>
          <path class="cls-112" d="m2605.4,1755.55s7.3-68.84,47.98-53.19c0,0-32.86,3.53-37.03,50.78l-10.95,2.41Z"/>
          <path class="cls-112" d="m2588.71,1753.47s-28.16-32.85-42.76,3.65c0,0,4.69-44.33,43.8-22.42,0,0,8.34,8.34,12,20.34l-13.04-1.56Z"/>
          <path class="cls-112" d="m2608.53,1755.55s-8.86-97.52-55.28-42.24c0,0,31.29-26.6,48.5,41.72l6.78.52Z"/>
          <path class="cls-112" d="m2608.53,1755.55s5.22-79.27,56.84-64.66c0,0-38.07-25.03-61.01,17.73,0,0-6.26,10.43-1.04,31.29,5.21,20.86,5.21,15.65,5.21,15.65Z"/>
          <path class="cls-112" d="m2600.45,1752.69s-10.17-30.51-35.98-28.94c0,0,17.73-9.39,38.85,16.17l-1.56,15.12-1.3-2.35Z"/>
        </g>
        <path class="cls-131" d="m2643.38,1760.17l-.72,4.02h-79.07l-.72-4.02c-.91-5.06,2.55-9.21,7.69-9.21h65.15c5.14,0,8.59,4.15,7.67,9.21Z"/>
        <polygon class="cls-57" points="2638.89 1763.56 2638.03 1768.32 2568.22 1768.32 2567.35 1763.56 2638.89 1763.56"/>
        <path class="cls-131" d="m2638.03,1768.32l-8.16,45.08c-.82,4.58-5.31,8.32-9.97,8.32h-33.56c-4.65,0-9.13-3.74-9.97-8.32l-8.16-45.08h69.81Z"/>
      </g>
      <g>
        <g>
          <path class="cls-101" d="m2031.4,1769.2c-5.42,4.49-11.73,5.82-14.08,2.97-2.35-2.85.13-8.79,5.56-13.28,5.42-4.49,11.73-5.82,14.08-2.97,2.35,2.85-.13,8.79-5.56,13.27Z"/>
          <path class="cls-112" d="m2034.53,1757.93c.86,1.04,2.47-.29,1.61-1.33-.86-1.04-2.47.29-1.61,1.33h0Z"/>
          <path class="cls-112" d="m2034.81,1761.23c.86,1.04,2.47-.29,1.61-1.33-.86-1.04-2.47.29-1.61,1.33h0Z"/>
          <path class="cls-112" d="m2028.83,1761.2c.86,1.04,2.47-.29,1.61-1.33-.86-1.04-2.47.29-1.61,1.33h0Z"/>
          <path class="cls-112" d="m2029.92,1764.82c.86,1.04,2.47-.29,1.61-1.33-.86-1.04-2.47.29-1.61,1.33h0Z"/>
          <path class="cls-112" d="m2024.91,1768.06c.86,1.04,2.47-.29,1.61-1.33-.86-1.04-2.47.29-1.61,1.33h0Z"/>
          <path class="cls-112" d="m2020.34,1766.24c.86,1.04,2.47-.29,1.61-1.33-.86-1.04-2.47.29-1.61,1.33h0Z"/>
          <path class="cls-112" d="m2024.14,1763.73c.86,1.04,2.47-.29,1.61-1.33-.86-1.04-2.47.29-1.61,1.33h0Z"/>
          <path class="cls-112" d="m2026.48,1765.58c.86,1.04,2.47-.29,1.61-1.33-.86-1.04-2.47.29-1.61,1.33h0Z"/>
          <path class="cls-112" d="m2025.48,1760.44c.86,1.04,2.47-.29,1.61-1.33-.86-1.04-2.47.29-1.61,1.33h0Z"/>
          <path class="cls-112" d="m2029.51,1757.11c.86,1.04,2.47-.29,1.61-1.33-.86-1.04-2.47.29-1.61,1.33h0Z"/>
          <path class="cls-112" d="m2031.59,1759.19c.86,1.04,2.47-.29,1.61-1.33-.86-1.04-2.47.29-1.61,1.33h0Z"/>
          <path class="cls-112" d="m2031.79,1762.28c.86,1.04,2.47-.29,1.61-1.33-.86-1.04-2.47.29-1.61,1.33h0Z"/>
          <path class="cls-112" d="m2029,1768.29c.86,1.04,2.47-.29,1.61-1.33-.86-1.04-2.47.29-1.61,1.33h0Z"/>
          <path class="cls-112" d="m2023.75,1772.55c.86,1.04,2.47-.29,1.61-1.33-.86-1.04-2.47.29-1.61,1.33h0Z"/>
          <path class="cls-112" d="m2018.55,1771.51c.86,1.04,2.47-.29,1.61-1.33-.86-1.04-2.47.29-1.61,1.33h0Z"/>
          <path class="cls-112" d="m2021.44,1769.76c.86,1.04,2.47-.29,1.61-1.33-.86-1.04-2.47.29-1.61,1.33h0Z"/>
          <path class="cls-112" d="m2023.26,1766.71c.86,1.04,2.47-.29,1.61-1.33-.86-1.04-2.47.29-1.61,1.33h0Z"/>
          <path class="cls-112" d="m2021.22,1762.17c.86,1.04,2.47-.29,1.61-1.33-.86-1.04-2.47.29-1.61,1.33h0Z"/>
          <path class="cls-112" d="m2027.31,1763.09c.86,1.04,2.47-.29,1.61-1.33-.86-1.04-2.47.29-1.61,1.33h0Z"/>
          <path class="cls-112" d="m2027.65,1758.47c.86,1.04,2.47-.29,1.61-1.33-.86-1.04-2.47.29-1.61,1.33h0Z"/>
          <path class="cls-112" d="m2031.74,1766.48c.86,1.04,2.47-.29,1.61-1.33-.86-1.04-2.47.3-1.61,1.33h0Z"/>
          <path class="cls-112" d="m2033.98,1763.72c.86,1.04,2.47-.29,1.61-1.33-.86-1.04-2.47.29-1.61,1.33h0Z"/>
          <path class="cls-112" d="m2032.84,1756.88c.86,1.04,2.47-.29,1.61-1.33-.86-1.04-2.47.29-1.61,1.33h0Z"/>
          <path class="cls-112" d="m2026.06,1770.54c.86,1.04,2.47-.29,1.61-1.33-.86-1.04-2.47.29-1.61,1.33h0Z"/>
          <path class="cls-112" d="m2027.2,1767.43c.86,1.04,2.47-.29,1.61-1.33-.86-1.04-2.47.29-1.61,1.33h0Z"/>
          <path class="cls-112" d="m2017.68,1768.71c.86,1.04,2.47-.29,1.61-1.33-.86-1.04-2.47.29-1.61,1.33h0Z"/>
          <path class="cls-112" d="m2019.37,1764.96c.86,1.04,2.47-.29,1.61-1.33-.86-1.04-2.47.29-1.61,1.33h0Z"/>
          <path class="cls-112" d="m2021.69,1764.49c.86,1.04,2.47-.29,1.61-1.33-.86-1.04-2.47.29-1.61,1.33h0Z"/>
          <path class="cls-112" d="m2023.11,1760.41c.86,1.04,2.47-.29,1.61-1.33-.86-1.04-2.47.29-1.61,1.33h0Z"/>
          <path class="cls-112" d="m2024.9,1758.31c.86,1.04,2.47-.3,1.61-1.33-.86-1.04-2.47.29-1.61,1.33h0Z"/>
          <path class="cls-112" d="m2020.8,1771.82c.86,1.04,2.47-.29,1.61-1.33-.86-1.04-2.47.29-1.61,1.33h0Z"/>
          <path class="cls-112" d="m2024.27,1770.12c.86,1.04,2.47-.29,1.61-1.33-.86-1.04-2.47.29-1.61,1.33h0Z"/>
          <path class="cls-112" d="m2019.71,1768.11c.86,1.04,2.47-.29,1.61-1.33-.86-1.04-2.47.29-1.61,1.33h0Z"/>
        </g>
        <g>
          <path class="cls-101" d="m2000.38,1743.31c7.48,7.07,10.54,15.98,6.83,19.91-3.71,3.93-12.78,1.38-20.26-5.69-7.48-7.07-10.54-15.98-6.83-19.91,3.71-3.92,12.78-1.38,20.26,5.69Z"/>
          <path class="cls-112" d="m1983.47,1740.79c1.35-1.43-.87-3.53-2.22-2.1-1.35,1.43.87,3.53,2.22,2.1h0Z"/>
          <path class="cls-112" d="m1988.2,1739.79c1.35-1.43-.87-3.53-2.22-2.1-1.35,1.43.87,3.53,2.22,2.1h0Z"/>
          <path class="cls-112" d="m1989.24,1748.48c1.35-1.43-.87-3.53-2.22-2.1-1.35,1.43.87,3.53,2.22,2.1h0Z"/>
          <path class="cls-112" d="m1994.29,1746.24c1.35-1.43-.87-3.53-2.22-2.1-1.35,1.43.87,3.53,2.22,2.1h0Z"/>
          <path class="cls-112" d="m1999.89,1752.93c1.35-1.43-.87-3.53-2.22-2.1-1.35,1.43.87,3.53,2.22,2.1h0Z"/>
          <path class="cls-112" d="m1998.07,1759.9c1.35-1.43-.87-3.53-2.22-2.1-1.35,1.43.87,3.53,2.22,2.1h0Z"/>
          <path class="cls-112" d="m1993.74,1754.83c1.35-1.43-.87-3.53-2.22-2.1-1.35,1.43.87,3.53,2.22,2.1h0Z"/>
          <path class="cls-112" d="m1996.01,1751.09c1.35-1.43-.87-3.53-2.22-2.1s.87,3.53,2.22,2.1h0Z"/>
          <path class="cls-112" d="m1988.73,1753.46c1.35-1.43-.87-3.53-2.22-2.1-1.35,1.43.87,3.53,2.22,2.1h0Z"/>
          <path class="cls-112" d="m1983.18,1748.22c1.35-1.43-.87-3.53-2.22-2.1-1.35,1.43.87,3.53,2.22,2.1h0Z"/>
          <path class="cls-112" d="m1985.82,1744.83c1.35-1.43-.87-3.53-2.22-2.1-1.35,1.43.87,3.53,2.22,2.1h0Z"/>
          <path class="cls-112" d="m1990.26,1743.98c1.35-1.43-.87-3.53-2.22-2.1-1.35,1.43.87,3.53,2.22,2.1h0Z"/>
          <path class="cls-112" d="m1999.5,1746.96c1.35-1.43-.87-3.53-2.22-2.1-1.35,1.43.87,3.53,2.22,2.1h0Z"/>
          <path class="cls-112" d="m2006.61,1753.82c1.35-1.43-.87-3.53-2.22-2.1-1.35,1.43.87,3.53,2.22,2.1h0Z"/>
          <path class="cls-112" d="m2006.04,1761.54c1.35-1.43-.87-3.53-2.22-2.1-1.35,1.43.87,3.53,2.22,2.1h0Z"/>
          <path class="cls-112" d="m2002.97,1757.67c1.35-1.43-.87-3.53-2.22-2.1-1.35,1.43.87,3.53,2.22,2.1h0Z"/>
          <path class="cls-112" d="m1998.23,1755.57c1.35-1.43-.87-3.53-2.22-2.1-1.35,1.43.87,3.53,2.22,2.1h0Z"/>
          <path class="cls-112" d="m1992,1759.35c1.35-1.43-.87-3.53-2.22-2.1-1.35,1.43.87,3.53,2.22,2.1h0Z"/>
          <path class="cls-112" d="m1992.25,1750.33c1.35-1.43-.87-3.53-2.22-2.1-1.35,1.43.87,3.53,2.22,2.1h0Z"/>
          <path class="cls-112" d="m1985.48,1750.67c1.35-1.43-.87-3.53-2.22-2.1-1.35,1.43.87,3.53,2.22,2.1h0Z"/>
          <path class="cls-112" d="m1996.37,1743.3c1.35-1.43-.87-3.53-2.22-2.1-1.35,1.43.87,3.53,2.22,2.1h0Z"/>
          <path class="cls-112" d="m1991.97,1740.55c1.35-1.43-.87-3.53-2.22-2.1-1.35,1.43.87,3.53,2.22,2.1h0Z"/>
          <path class="cls-112" d="m1982.25,1743.42c1.35-1.43-.87-3.53-2.22-2.1-1.35,1.43.87,3.53,2.22,2.1h0Z"/>
          <path class="cls-112" d="m2003.28,1750.81c1.35-1.43-.87-3.53-2.22-2.1-1.35,1.43.87,3.53,2.22,2.1h0Z"/>
          <path class="cls-112" d="m1998.57,1749.72c1.35-1.43-.87-3.53-2.22-2.1-1.35,1.43.87,3.53,2.22,2.1h0Z"/>
          <path class="cls-112" d="m2002.13,1763.31c1.35-1.43-.87-3.53-2.22-2.1-1.35,1.43.87,3.53,2.22,2.1h0Z"/>
          <path class="cls-112" d="m1996.38,1761.53c1.35-1.43-.87-3.53-2.22-2.1-1.35,1.43.87,3.53,2.22,2.1h0Z"/>
          <path class="cls-112" d="m1995.28,1758.25c1.35-1.43-.87-3.53-2.22-2.1-1.35,1.43.87,3.53,2.22,2.1h0Z"/>
          <path class="cls-112" d="m1989.12,1756.91c1.35-1.43-.87-3.53-2.22-2.1-1.35,1.43.87,3.53,2.22,2.1h0Z"/>
          <path class="cls-112" d="m1985.74,1754.7c1.35-1.43-.87-3.53-2.22-2.1-1.35,1.43.87,3.53,2.22,2.1h0Z"/>
          <path class="cls-112" d="m2006.09,1758.23c1.35-1.43-.87-3.53-2.22-2.1-1.35,1.43.87,3.53,2.22,2.1h0Z"/>
          <path class="cls-112" d="m2003,1753.49c1.35-1.43-.87-3.53-2.22-2.1-1.35,1.43.87,3.53,2.22,2.1h0Z"/>
          <path class="cls-112" d="m2000.89,1760.47c1.35-1.43-.87-3.53-2.22-2.1-1.35,1.43.87,3.53,2.22,2.1h0Z"/>
        </g>
        <path class="cls-101" d="m2027.16,1749.02c0,19.46-8.28,35.23-18.49,35.23s-18.49-15.78-18.49-35.23,8.28-35.23,18.49-35.23,18.49,15.78,18.49,35.23Z"/>
        <path class="cls-112" d="m2008.67,1722.51c3.73,0,3.73-5.78,0-5.78s-3.73,5.78,0,5.78h0Z"/>
        <path class="cls-112" d="m2016.19,1727.71c3.73,0,3.73-5.78,0-5.78s-3.73,5.78,0,5.78h0Z"/>
        <path class="cls-112" d="m2005.59,1740.42c3.73,0,3.73-5.78,0-5.78s-3.73,5.78,0,5.78h0Z"/>
        <path class="cls-112" d="m2015.22,1744.47c3.73,0,3.73-5.78,0-5.78s-3.73,5.78,0,5.78h0Z"/>
        <path class="cls-112" d="m2013.3,1760.83c3.73,0,3.73-5.78,0-5.78s-3.73,5.78,0,5.78h0Z"/>
        <path class="cls-112" d="m2001.36,1767.38c3.73,0,3.73-5.78,0-5.78s-3.73,5.78,0,5.78h0Z"/>
        <path class="cls-112" d="m2002.7,1754.86c3.73,0,3.73-5.78,0-5.78s-3.73,5.78,0,5.78h0Z"/>
        <path class="cls-112" d="m2010.79,1753.13c3.73,0,3.73-5.78,0-5.78s-3.73,5.78,0,5.78h0Z"/>
        <path class="cls-112" d="m1998.08,1746.2c3.73,0,3.73-5.78,0-5.78s-3.73,5.78,0,5.78h0Z"/>
        <path class="cls-112" d="m1998.08,1731.76c3.73,0,3.73-5.78,0-5.78s-3.73,5.78,0,5.78h0Z"/>
        <path class="cls-112" d="m2006.17,1730.99c3.73,0,3.73-5.78,0-5.78s-3.73,5.78,0,5.78h0Z"/>
        <path class="cls-112" d="m2013.1,1735.99c3.73,0,3.73-5.78,0-5.78s-3.73,5.78,0,5.78h0Z"/>
        <path class="cls-112" d="m2021,1752.55c3.73,0,3.73-5.78,0-5.78s-3.73,5.78,0,5.78h0Z"/>
        <path class="cls-112" d="m2020.81,1771.23c3.73,0,3.73-5.78,0-5.78s-3.73,5.78,0,5.78h0Z"/>
        <path class="cls-112" d="m2009.45,1780.48c3.73,0,3.73-5.78,0-5.78s-3.73,5.78,0,5.78h0Z"/>
        <path class="cls-112" d="m2010.79,1771.23c3.73,0,3.73-5.78,0-5.78s-3.73,5.78,0,5.78h0Z"/>
        <path class="cls-112" d="m2007.52,1761.99c3.73,0,3.73-5.78,0-5.78s-3.73,5.78,0,5.78h0Z"/>
        <path class="cls-112" d="m1994.23,1758.33c3.73,0,3.73-5.78,0-5.78s-3.73,5.78,0,5.78h0Z"/>
        <path class="cls-112" d="m2006.94,1746.97c3.73,0,3.73-5.78,0-5.78s-3.73,5.78,0,5.78h0Z"/>
        <path class="cls-112" d="m1997.7,1738.11c3.73,0,3.73-5.78,0-5.78s-3.73,5.78,0,5.78h0Z"/>
        <path class="cls-112" d="m2021.96,1743.5c3.73,0,3.73-5.78,0-5.78s-3.73,5.78,0,5.78h0Z"/>
        <path class="cls-112" d="m2020.04,1733.87c3.73,0,3.73-5.78,0-5.78s-3.73,5.78,0,5.78h0Z"/>
        <path class="cls-112" d="m2003.47,1724.25c3.73,0,3.73-5.78,0-5.78s-3.73,5.78,0,5.78h0Z"/>
        <path class="cls-112" d="m2020.61,1762.76c3.73,0,3.73-5.78,0-5.78s-3.73,5.78,0,5.78h0Z"/>
        <path class="cls-112" d="m2015.99,1754.86c3.73,0,3.73-5.78,0-5.78s-3.73,5.78,0,5.78h0Z"/>
        <path class="cls-112" d="m2001.93,1777.4c3.73,0,3.73-5.78,0-5.78s-3.73,5.78,0,5.78h0Z"/>
        <path class="cls-112" d="m1996.93,1767.19c3.73,0,3.73-5.78,0-5.78s-3.73,5.78,0,5.78h0Z"/>
        <path class="cls-112" d="m2000.01,1761.41c3.73,0,3.73-5.78,0-5.78s-3.73,5.78,0,5.78h0Z"/>
        <path class="cls-112" d="m1993.85,1751.21c3.73,0,3.73-5.78,0-5.78s-3.73,5.78,0,5.78h0Z"/>
        <path class="cls-112" d="m1992.5,1743.69c3.73,0,3.73-5.78,0-5.78s-3.73,5.78,0,5.78h0Z"/>
        <path class="cls-112" d="m2014.07,1776.24c3.73,0,3.73-5.78,0-5.78s-3.73,5.78,0,5.78h0Z"/>
        <path class="cls-112" d="m2016.57,1765.84c3.73,0,3.73-5.78,0-5.78s-3.73,5.78,0,5.78h0Z"/>
        <path class="cls-112" d="m2004.25,1772c3.73,0,3.73-5.78,0-5.78s-3.73,5.78,0,5.78h0Z"/>
        <g>
          <path class="cls-64" d="m1984.47,1784.77v23.21c0,8.04,6.58,14.62,14.62,14.62h19.01c8.04,0,14.62-6.58,14.62-14.62v-23.21h-48.25Z"/>
          <rect class="cls-64" x="1978.86" y="1777.4" width="59.46" height="7.37"/>
          <rect class="cls-85" x="1984.47" y="1784.77" width="48.25" height="3.67"/>
        </g>
      </g>
    </g>
    <g id="calculator">
      <rect class="cls-28" x="3495.61" y="798.6" width="389.98" height="495.38" rx="16.1" ry="16.1"/>
      <rect class="cls-51" x="3518.45" y="821.31" width="346.43" height="108.43" rx="11.52" ry="11.52"/>
      <rect class="cls-37" x="3524.42" y="826.19" width="336.18" height="98.91" rx="8.5" ry="8.5"/>
      <g class="cls-139">
        <g>
          <rect class="cls-5" x="3521.4" y="958.43" width="73.73" height="47.98"/>
          <rect class="cls-5" x="3609.51" y="958.43" width="73.74" height="47.98"/>
          <rect class="cls-5" x="3699.46" y="958.43" width="73.73" height="47.98"/>
          <rect class="cls-5" x="3791.97" y="958.43" width="73.73" height="47.98"/>
        </g>
      </g>
      <g class="cls-139">
        <g>
          <rect class="cls-5" x="3521.4" y="1037.51" width="73.73" height="34.46"/>
          <rect class="cls-5" x="3609.51" y="1037.51" width="73.74" height="34.46"/>
          <rect class="cls-5" x="3699.46" y="1037.51" width="73.73" height="34.46"/>
          <rect class="cls-5" x="3791.97" y="1037.51" width="73.73" height="34.46"/>
        </g>
      </g>
      <g class="cls-139">
        <g>
          <rect class="cls-5" x="3521.4" y="1085.63" width="73.73" height="34.46"/>
          <rect class="cls-5" x="3609.51" y="1085.63" width="73.74" height="34.46"/>
          <rect class="cls-5" x="3699.46" y="1085.63" width="73.73" height="34.46"/>
          <rect class="cls-5" x="3791.97" y="1085.63" width="73.73" height="34.46"/>
        </g>
      </g>
      <g class="cls-139">
        <g>
          <rect class="cls-5" x="3521.4" y="1133.75" width="73.73" height="34.46"/>
          <rect class="cls-5" x="3609.51" y="1133.75" width="73.74" height="34.46"/>
          <rect class="cls-5" x="3699.46" y="1133.75" width="73.73" height="34.46"/>
          <rect class="cls-5" x="3791.97" y="1133.75" width="73.73" height="34.46"/>
        </g>
      </g>
      <g class="cls-139">
        <g>
          <rect class="cls-5" x="3521.4" y="1181.87" width="73.73" height="34.46"/>
          <rect class="cls-5" x="3609.51" y="1181.87" width="73.74" height="34.46"/>
          <rect class="cls-5" x="3699.46" y="1181.87" width="73.73" height="34.46"/>
        </g>
      </g>
      <g class="cls-139">
        <g>
          <polygon class="cls-5" points="3609.51 1229.99 3521.4 1229.99 3521.4 1272.24 3609.51 1272.24 3683.25 1272.24 3683.25 1229.99 3609.51 1229.99"/>
          <rect class="cls-5" x="3699.46" y="1229.99" width="73.73" height="42.25"/>
        </g>
      </g>
      <polygon class="cls-6" points="3791.97 1181.87 3791.97 1219.58 3791.97 1272.24 3865.7 1272.24 3865.7 1219.58 3865.7 1181.87 3791.97 1181.87"/>
      <g>
        <rect class="cls-46" x="3518.45" y="955.9" width="73.73" height="47.98"/>
        <rect class="cls-46" x="3606.56" y="955.9" width="73.73" height="47.98"/>
        <rect class="cls-46" x="3696.51" y="955.9" width="73.73" height="47.98"/>
        <rect class="cls-59" x="3789.02" y="955.9" width="73.73" height="47.98"/>
      </g>
      <g>
        <rect class="cls-29" x="3518.45" y="1034.98" width="73.73" height="34.46"/>
        <rect class="cls-29" x="3606.56" y="1034.98" width="73.73" height="34.46"/>
        <rect class="cls-29" x="3696.51" y="1034.98" width="73.73" height="34.46"/>
        <rect class="cls-29" x="3789.02" y="1034.98" width="73.73" height="34.46"/>
      </g>
      <g>
        <rect class="cls-29" x="3518.45" y="1083.1" width="73.73" height="34.46"/>
        <rect class="cls-29" x="3606.56" y="1083.1" width="73.73" height="34.46"/>
        <rect class="cls-29" x="3696.51" y="1083.1" width="73.73" height="34.46"/>
        <rect class="cls-29" x="3789.02" y="1083.1" width="73.73" height="34.46"/>
      </g>
      <g>
        <rect class="cls-29" x="3518.45" y="1131.22" width="73.73" height="34.46"/>
        <rect class="cls-29" x="3606.56" y="1131.22" width="73.73" height="34.46"/>
        <rect class="cls-29" x="3696.51" y="1131.22" width="73.73" height="34.46"/>
        <rect class="cls-29" x="3789.02" y="1131.22" width="73.73" height="34.46"/>
      </g>
      <g>
        <rect class="cls-29" x="3518.45" y="1179.34" width="73.73" height="34.46"/>
        <rect class="cls-29" x="3606.56" y="1179.34" width="73.73" height="34.46"/>
        <rect class="cls-29" x="3696.51" y="1179.34" width="73.73" height="34.46"/>
      </g>
      <g>
        <polygon class="cls-29" points="3606.56 1227.46 3518.45 1227.46 3518.45 1269.71 3606.56 1269.71 3680.3 1269.71 3680.3 1227.46 3606.56 1227.46"/>
        <rect class="cls-29" x="3696.51" y="1227.46" width="73.73" height="42.25"/>
      </g>
      <polygon class="cls-115" points="3789.02 1179.34 3789.02 1217.05 3789.02 1269.71 3862.75 1269.71 3862.75 1217.05 3862.75 1179.34 3789.02 1179.34"/>
      <path class="cls-117" d="m3552.23,1189.47h-.06l-3.73,1.88-.66-2.92,4.96-2.45h3.23v20.39h-3.73v-16.91Z"/>
      <path class="cls-117" d="m3606.67,1247.42c0,6.56-2.57,10.67-7.44,10.67s-7.22-4.27-7.25-10.48c0-6.34,2.7-10.6,7.47-10.6s7.22,4.39,7.22,10.42Zm-10.79.19c-.03,4.96,1.35,7.53,3.48,7.53,2.26,0,3.45-2.76,3.45-7.66s-1.13-7.53-3.45-7.53c-2.07,0-3.51,2.54-3.48,7.66Z"/>
      <path class="cls-117" d="m3728.68,1247.6c0-1.44,1-2.48,2.38-2.48s2.38,1,2.38,2.48-.94,2.48-2.38,2.48-2.38-1.07-2.38-2.48Z"/>
      <path class="cls-117" d="m3636.24,1206.38v-2.35l2.42-2.23c4.8-4.45,7.06-6.9,7.09-9.6,0-1.82-.97-3.42-3.64-3.42-1.79,0-3.33.91-4.36,1.69l-1.13-2.73c1.47-1.19,3.7-2.1,6.27-2.1,4.52,0,6.71,2.85,6.71,6.18,0,3.58-2.57,6.46-6.12,9.76l-1.79,1.54v.06h8.38v3.2h-13.84Z"/>
      <path class="cls-117" d="m3727.52,1202.4c.78.47,2.7,1.25,4.64,1.25,2.95,0,4.14-1.66,4.11-3.26,0-2.42-2.26-3.45-4.61-3.45h-1.79v-2.82h1.73c1.79,0,4.05-.82,4.05-2.85,0-1.38-1.04-2.54-3.26-2.54-1.66,0-3.33.72-4.17,1.29l-.88-2.79c1.16-.82,3.42-1.57,5.87-1.57,4.2,0,6.37,2.32,6.37,4.99,0,2.13-1.26,3.89-3.76,4.77v.06c2.48.44,4.49,2.32,4.49,5.08,0,3.45-2.89,6.18-7.94,6.18-2.48,0-4.61-.69-5.71-1.41l.88-2.92Z"/>
      <path class="cls-117" d="m3554.67,1159.99v-5.18h-9.22v-2.51l8.31-12.71h4.55v12.3h2.64v2.92h-2.64v5.18h-3.64Zm0-8.09v-5.55c0-1.16.03-2.35.13-3.55h-.13c-.63,1.29-1.16,2.32-1.79,3.45l-3.73,5.58-.03.06h5.55Z"/>
      <path class="cls-117" d="m3649.2,1142.8h-7.84l-.6,4.08c.47-.06.88-.09,1.47-.09,1.79,0,3.58.41,4.96,1.32,1.54.97,2.67,2.7,2.67,5.18,0,3.89-3.23,7.06-8.25,7.06-2.35,0-4.33-.6-5.4-1.19l.78-2.92c.88.47,2.64,1.07,4.49,1.07,2.26,0,4.42-1.29,4.42-3.73,0-2.32-1.73-3.86-5.8-3.86-1.13,0-1.98.06-2.79.19l1.35-10.29h10.54v3.2Z"/>
      <path class="cls-117" d="m3739.16,1142.33c-.56,0-1.19,0-1.98.09-4.27.5-6.34,3.14-6.84,5.96h.09c1-1.16,2.54-1.98,4.58-1.98,3.51,0,6.24,2.51,6.24,6.65,0,3.89-2.85,7.28-7.18,7.28-4.96,0-7.69-3.76-7.69-8.78,0-3.92,1.41-7.12,3.55-9.16,1.88-1.76,4.33-2.76,7.25-3.01.85-.09,1.47-.09,1.94-.06l.03,3.01Zm-1.82,10.95c0-2.35-1.29-4.05-3.55-4.05-1.44,0-2.73.88-3.33,2.1-.16.31-.25.69-.25,1.22.06,2.7,1.35,4.89,3.83,4.89,2.01,0,3.29-1.73,3.29-4.17Z"/>
      <path class="cls-117" d="m3826.96,1140.77v7.09h6.81v2.45h-6.81v7.15h-2.57v-7.15h-6.81v-2.45h6.81v-7.09h2.57Z"/>
      <path class="cls-117" d="m3817.58,1222.16v-2.48h16.19v2.48h-16.19Zm0,6.34v-2.45h16.19v2.45h-16.19Z"/>
      <path class="cls-117" d="m3560.19,1090.5v2.48l-8.63,17.91h-4.08l8.6-17.13v-.06h-9.6v-3.2h13.71Z"/>
      <g>
        <path class="cls-117" d="m3552.69,1053.21c-.1-2.19-.23-4.82-.2-7.11h-.08c-.55,2.06-1.26,4.35-2.01,6.48l-2.46,7.34h-2.39l-2.26-7.23c-.65-2.16-1.26-4.47-1.71-6.58h-.05c-.08,2.21-.18,4.9-.3,7.21l-.38,6.81h-2.89l1.13-16.93h4.07l2.21,6.81c.6,1.98,1.13,3.99,1.56,5.88h.08c.45-1.83,1.03-3.92,1.68-5.9l2.34-6.78h4.02l.98,16.93h-3.01l-.33-6.91Z"/>
        <path class="cls-117" d="m3571.3,1059.62c-.73.38-2.34.75-4.37.75-5.38,0-8.64-3.37-8.64-8.52,0-5.58,3.87-8.94,9.04-8.94,2.03,0,3.49.43,4.12.75l-.68,2.46c-.8-.35-1.91-.65-3.32-.65-3.44,0-5.93,2.16-5.93,6.23,0,3.72,2.19,6.1,5.9,6.1,1.26,0,2.56-.25,3.37-.63l.5,2.44Z"/>
      </g>
      <g>
        <path class="cls-117" d="m3644.49,1053.21c-.1-2.19-.23-4.82-.2-7.11h-.08c-.55,2.06-1.26,4.35-2.01,6.48l-2.46,7.34h-2.39l-2.26-7.23c-.65-2.16-1.26-4.47-1.71-6.58h-.05c-.08,2.21-.18,4.9-.3,7.21l-.38,6.81h-2.89l1.13-16.93h4.07l2.21,6.81c.6,1.98,1.13,3.99,1.56,5.88h.08c.45-1.83,1.03-3.92,1.68-5.9l2.34-6.78h4.02l.98,16.93h-3.01l-.33-6.91Z"/>
        <path class="cls-117" d="m3657.7,1046.76v5.68h5.45v1.96h-5.45v5.73h-2.06v-5.73h-5.45v-1.96h5.45v-5.68h2.06Z"/>
      </g>
      <path class="cls-117" d="m3641.74,977.46c0,3.44-2.01,5.17-4.25,5.17s-4.14-1.76-4.17-4.9c0-3.09,1.78-5.12,4.3-5.12s4.12,1.91,4.12,4.85Zm-6.05.18c-.03,1.88.65,3.27,1.88,3.27s1.83-1.31,1.83-3.29c0-1.81-.5-3.27-1.83-3.27-1.26,0-1.88,1.46-1.88,3.29Zm1.86,11.86l9.47-16.88h1.76l-9.47,16.88h-1.76Zm15.45-5.25c0,3.42-1.98,5.17-4.25,5.17s-4.14-1.76-4.14-4.92,1.78-5.12,4.27-5.12,4.12,1.93,4.12,4.87Zm-6.05.18c-.03,1.86.65,3.27,1.88,3.27s1.83-1.31,1.83-3.29c0-1.83-.5-3.27-1.83-3.27-1.26,0-1.88,1.46-1.88,3.29Z"/>
      <g>
        <path class="cls-117" d="m3737.41,1053.21c-.1-2.19-.23-4.82-.2-7.11h-.08c-.55,2.06-1.26,4.35-2.01,6.48l-2.46,7.34h-2.39l-2.26-7.23c-.65-2.16-1.26-4.47-1.71-6.58h-.05c-.08,2.21-.18,4.9-.3,7.21l-.38,6.81h-2.89l1.13-16.93h4.07l2.21,6.81c.6,1.98,1.13,3.99,1.56,5.88h.08c.45-1.83,1.03-3.92,1.68-5.9l2.34-6.78h4.02l.98,16.93h-3.01l-.33-6.91Z"/>
        <path class="cls-117" d="m3749.36,1052.36v2.14h-6.41v-2.14h6.41Z"/>
      </g>
      <g>
        <path class="cls-117" d="m3732.57,987.81c-.73.38-2.34.75-4.37.75-5.38,0-8.64-3.37-8.64-8.52,0-5.58,3.87-8.94,9.04-8.94,2.03,0,3.49.43,4.12.75l-.68,2.46c-.8-.35-1.91-.65-3.32-.65-3.44,0-5.93,2.16-5.93,6.23,0,3.72,2.19,6.1,5.9,6.1,1.26,0,2.56-.25,3.37-.63l.5,2.44Z"/>
        <path class="cls-117" d="m3744.67,980.81h-6.38v4.97h7.13v2.54h-10.22v-16.93h9.85v2.54h-6.76v4.37h6.38v2.51Z"/>
      </g>
      <g>
        <path class="cls-117" d="m3816.15,980.11c0,4.88-2.96,7.67-6.98,7.67s-6.7-3.13-6.7-7.41,2.81-7.63,6.91-7.63,6.76,3.22,6.76,7.37Zm-10.87.22c0,2.96,1.49,5.31,4.04,5.31s4.02-2.38,4.02-5.42c0-2.74-1.36-5.34-4.02-5.34s-4.04,2.44-4.04,5.44Z"/>
        <path class="cls-117" d="m3818.44,987.54v-14.56h3.02l3.76,6.24c.97,1.62,1.81,3.31,2.48,4.88h.04c-.17-1.94-.24-3.82-.24-6.05v-5.08h2.46v14.56h-2.74l-3.8-6.39c-.93-1.6-1.9-3.39-2.61-5.03l-.06.02c.11,1.88.13,3.8.13,6.2v5.21h-2.44Z"/>
        <path class="cls-117" d="m3831.68,988.4l5.27-15.66h1.86l-5.27,15.66h-1.86Z"/>
        <path class="cls-117" d="m3850.75,987.11c-.63.32-2.01.65-3.76.65-4.62,0-7.43-2.89-7.43-7.32,0-4.8,3.33-7.69,7.78-7.69,1.75,0,3,.37,3.54.65l-.58,2.12c-.69-.3-1.64-.56-2.85-.56-2.96,0-5.1,1.86-5.1,5.36,0,3.2,1.88,5.25,5.08,5.25,1.08,0,2.2-.22,2.89-.54l.43,2.1Z"/>
      </g>
      <path class="cls-117" d="m3635.96,1105.65c0-2.54,1.47-4.27,3.83-5.3v-.09c-2.13-1.04-3.11-2.73-3.11-4.52,0-3.33,2.95-5.58,6.81-5.58,4.39,0,6.4,2.64,6.4,5.15,0,1.73-.91,3.51-3.14,4.61v.09c2.23.85,3.89,2.6,3.89,5.15,0,3.64-3.07,6.09-7.44,6.09-4.77,0-7.25-2.73-7.25-5.58Zm10.76-.19c0-2.07-1.54-3.2-3.8-3.83-1.91.56-3.01,1.88-3.01,3.58-.06,1.73,1.25,3.29,3.42,3.29,2.04,0,3.39-1.29,3.39-3.04Zm-6.37-9.88c0,1.66,1.38,2.67,3.33,3.2,1.38-.41,2.54-1.54,2.54-3.07,0-1.41-.85-2.89-2.92-2.89-1.95,0-2.95,1.29-2.95,2.76Z"/>
      <path class="cls-117" d="m3728.31,1108.13c.6.06,1.19.03,2.13-.06,1.51-.13,3.01-.66,4.14-1.57,1.32-1.07,2.23-2.6,2.6-4.52l-.06-.03c-1.03,1.16-2.48,1.82-4.45,1.82-3.55,0-6.18-2.57-6.18-6.34s3.01-7.28,7.37-7.28c4.74,0,7.28,3.73,7.28,8.69,0,4.36-1.44,7.47-3.55,9.47-1.79,1.66-4.24,2.6-6.97,2.79-.88.09-1.76.09-2.32.06v-3.04Zm2.01-10.92c.03,2.1,1.22,3.73,3.36,3.73,1.57,0,2.7-.72,3.29-1.69.13-.25.22-.56.22-1.1.03-2.76-1-5.15-3.51-5.15-1.94,0-3.36,1.73-3.36,4.2Z"/>
      <rect class="cls-117" x="3816.32" y="1100.33" width="18.39" height="2.79"/>
      <rect class="cls-117" x="3816.32" y="1050.81" width="18.39" height="2.79"/>
      <circle class="cls-117" cx="3825.31" cy="1045.4" r="1.66"/>
      <circle class="cls-117" cx="3825.31" cy="1058.46" r="1.66"/>
      <polygon class="cls-117" points="3543.8 975.21 3551.2 988.36 3557.78 973.56 3566.83 973.56 3566.83 971.57 3556.42 971.42 3550.91 983.25 3546.12 975.22 3543.8 975.21"/>
      <g>
        <path class="cls-28" d="m3592.51,854.52v14.04l-4.44,4.44-1.48-1.48v-19.22l5.91,2.22Zm-5.91,40.66v-19.22l1.48-1.48,4.44,4.44v14.04l-5.91,2.22Zm25.87,5.17h-22.18c-1.97-.49-3.2-1.72-3.7-3.7l5.91-2.22h17.74l2.22,5.91Zm-2.22-47.31h-17.67l-5.91-2.22c.49-1.97,1.72-3.2,3.7-3.7h22.1l-2.22,5.91Zm1.48,15.52v-15.52l2.22-5.91c1.97.49,3.2,1.73,3.7,3.7v20.7l-1.48,1.48-4.44-4.44Zm4.44,5.91l1.48,1.48v20.7c-.49,1.97-1.73,3.2-3.7,3.7l-2.22-5.91v-15.52l4.44-4.44Z"/>
        <path class="cls-28" d="m3642.04,900.35h-5.91v-5.91h5.91v5.91Z"/>
        <path class="cls-28" d="m3685.65,868.57v-15.52l2.22-5.91c1.97.49,3.2,1.73,3.7,3.7v20.7l-1.48,1.48-4.44-4.44Zm4.44,5.91l1.48,1.48v20.7c-.49,1.97-1.73,3.2-3.7,3.7l-2.22-5.91v-15.52l4.44-4.44Z"/>
        <path class="cls-28" d="m3697.48,895.18v-19.22l1.48-1.48,4.44,4.44v14.04l-5.91,2.22Zm28.09,5.17h-24.39c-1.97-.49-3.2-1.72-3.7-3.7l5.91-2.22h19.96l2.22,5.91Zm-4.43-47.31h-17.67l-5.91-2.22c.49-1.97,1.72-3.2,3.7-3.7h22.1l-2.22,5.91Zm1.48,17.74l2.96,2.96-2.96,2.96h-19.22l-2.96-2.96,2.96-2.96h19.22Zm0-2.22v-15.52l2.22-5.91c1.97.49,3.2,1.73,3.7,3.7v20.7l-1.48,1.48-4.44-4.44Z"/>
        <path class="cls-28" d="m3760.31,900.35h-22.18c-1.97-.49-3.2-1.72-3.7-3.7l5.91-2.22h17.74l2.22,5.91Zm-2.22-47.31h-17.67l-5.91-2.22c.49-1.97,1.72-3.2,3.7-3.7h22.1l-2.22,5.91Zm1.48,17.74l2.96,2.96-2.96,2.96h-19.22l-2.96-2.96,2.96-2.96h19.22Zm0-2.22v-15.52l2.22-5.91c1.97.49,3.2,1.73,3.7,3.7v20.7l-1.48,1.48-4.43-4.44Zm4.43,5.91l1.48,1.48v20.7c-.49,1.97-1.73,3.2-3.7,3.7l-2.22-5.91v-15.52l4.43-4.44Z"/>
        <path class="cls-28" d="m3777.31,852.31v16.26l-4.44,4.44-1.48-1.48v-21.44l5.91,2.22Zm19.22,18.48l2.96,2.96-2.96,2.96h-19.22l-2.96-2.96,2.96-2.96h19.22Zm0-2.22v-15.52l2.22-5.91c1.97.49,3.2,1.73,3.7,3.7v20.7l-1.48,1.48-4.43-4.44Zm4.43,5.91l1.48,1.48v20.7c-.49,1.97-1.73,3.2-3.7,3.7l-2.22-5.91v-15.52l4.43-4.44Z"/>
        <path class="cls-28" d="m3814.27,854.52v14.04l-4.44,4.44-1.48-1.48v-19.22l5.91,2.22Zm19.96,45.83h-22.18c-1.97-.49-3.2-1.72-3.7-3.7l5.91-2.22h17.74l2.22,5.91Zm0-47.31h-19.88l-5.91-2.22c.49-1.97,1.72-3.2,3.7-3.7h24.32l-2.22,5.91Zm-.74,17.74l2.96,2.96-2.96,2.96h-19.22l-2.96-2.96,2.96-2.96h19.22Zm4.43,3.7l1.48,1.48v20.7c-.49,1.97-1.73,3.2-3.7,3.7l-2.22-5.91v-15.52l4.43-4.44Z"/>
      </g>
    </g>
    <g>
      <circle class="cls-20" cx="3593.91" cy="1788.27" r="333.88"/>
      <circle class="cls-117" cx="3593.91" cy="1788.27" r="265.01"/>
      <circle class="cls-20" cx="3593.91" cy="1788.27" r="211.98"/>
      <circle class="cls-117" cx="3593.91" cy="1788.27" r="146.83" transform="translate(-211.87 3065.05) rotate(-45)"/>
      <circle class="cls-20" cx="3593.91" cy="1788.27" r="85.97"/>
      <circle class="cls-41" cx="3593.91" cy="1788.27" r="37.94" transform="translate(-410.77 1511.45) rotate(-22.5)"/>
      <g>
        <rect class="cls-39" x="3804.64" y="1261.63" width="11.54" height="620.28" rx="2.52" ry="2.52" transform="translate(2227.41 -2233.99) rotate(45)"/>
        <g>
          <polygon class="cls-22" points="4022.66 1351.36 3906.06 1467.96 3906.32 1461.14 3906.79 1448.33 3908.92 1391.72 4028.31 1272.33 4024.12 1331 4023.16 1344.29 4022.66 1351.36"/>
          <polygon class="cls-2" points="4022.66 1351.36 3906.06 1467.96 3906.32 1461.14 4023.16 1344.29 4022.66 1351.36"/>
        </g>
        <g>
          <polygon class="cls-22" points="4030.82 1359.52 3914.22 1476.12 3921.05 1475.87 3933.86 1475.39 3990.46 1473.26 4109.85 1353.87 4051.18 1358.07 4037.89 1359.02 4030.82 1359.52"/>
          <polygon class="cls-2" points="4030.82 1359.52 3914.22 1476.12 3921.05 1475.87 4037.89 1359.02 4030.82 1359.52"/>
        </g>
      </g>
    </g>
    <g>
      <path class="cls-45" d="m1359.29,1683.65s35.17,3.91,54.55-.66c0,0,22.31,200.87,21.33,218.44-.98,17.57-12.2,204.46-12.2,204.46l-33.18,3.43s-5.88-80.53-8.06-98.58c-2.19-18.05-1.21-75.64,10.99-101.01,0,0-50.26-160.05-46.84-189.33,3.42-29.28,13.42-36.75,13.42-36.75Z"/>
      <path class="cls-48" d="m1321.15,1668.92s-22.76,27.41-18.89,47.52c3.87,20.12,9.22,194.2,9.22,194.2,0,0-15.41,34.82-16.19,53.39-.77,18.57,0,140.81,0,140.81,0,0,13.02-6.71,21.66,0,4.46,3.46,4.19,3.09,4.19,3.09,0,0,33.72-167.89,37.59-198.84,3.87-30.95,23-223.44,23-223.44,0,0-24.67,3.06-60.59-16.73Z"/>
      <path class="cls-117" d="m1390.63,1477.78c2.01.35,86.1,17.33,97.44,5.14s55.51-67.7,55.51-67.7l19.55,13.82s-54.73,91.33-63.33,92.9c-8.6,1.56-69.19,1.17-70.75,8.6-1.56,7.43-15.2,152.45-15.2,152.45,0,0-55.56,11.73-92.69-14.07,0,0,4.41-38.09.5-54.33-3.91-16.24-7.15-49.65-6.76-62.55.39-12.9-34.4,35.57-32.84,45.74s36.75,62.28,36.75,62.28c0,0-14.07,12.27-12.9,20.92,0,0-63.33-57.8-64.5-83.99-1.17-26.19,48.08-99.42,60.59-103.85,12.51-4.43,51.6-17.72,51.6-17.72,0,0,12.89,14.85,28.14,13.68,15.25-1.17,8.89-11.32,8.89-11.32Z"/>
      <path class="cls-15" d="m1389.93,1428.28c5.3-10.43,24.89-47.06,23.87-55.96s-4.23-6.36-8.48-10.68-5.26-9.41-9.58-8.9-2.29,4.58-10.17,5.09-34.34,2.8-38.92,9.92c-4.58,7.12-2.29,17.55-2.29,17.55,0,0-10.17,7.63-8.65,18.82,1.53,11.19,5.03,26.68,21.21,38.65l33.01-14.49Z"/>
      <path class="cls-106" d="m1405.33,1452.72s-16.85,5.53-18.17,26.33l-31.6-2.63s0-69.52,12.9-85.32l36.86,61.62Z"/>
      <path class="cls-106" d="m1364.25,1405.32c1.58,11.59-4.74,49.77,46.87,50.56,0,0,8.69-17.38,6.32-38.71s-4.48-33.18-10.01-36.08c-5.53-2.9-42.66-6.85-44.76,5.53-2.11,12.38,1.58,18.7,1.58,18.7Z"/>
      <path class="cls-106" d="m1362.64,1413.48s-1.99-14.72-10.47-11.53c-8.49,3.18-4.11,18.83,8.49,23.2l1.99-11.67Z"/>
      <polygon class="cls-8" points="1353.89 1464.28 1380.44 1478.12 1370.72 1495.39 1348.8 1475.24 1353.89 1464.28"/>
      <polygon class="cls-8" points="1385.67 1477.78 1391.87 1491.29 1392.73 1476.55 1388.73 1470.57 1385.67 1477.78"/>
      <path class="cls-72" d="m1380.44,1478.12l5.22-.33,4.96,10.8s-1.43,4.95-9.49,4.53c-8.05-.42-8.3-1.5-8.3-1.5l7.6-13.51Z"/>
      <path class="cls-72" d="m1377.8,1492.87s12.93,88.1-3.1,138.13l10.97,20.72,11.71-21.5s-.04-98.82-8.82-138.93l-10.76,1.58Z"/>
      <path class="cls-106" d="m1318.8,1660.06l18.75,17.6-20.05,18.25-11.6-14.92s-2.49-9.15,12.9-20.92Z"/>
      <path class="cls-45" d="m1389.79,2109.32s-5.65,31.22,0,33.65c5.65,2.43,44.57,6.25,66.46,1.74,21.89-4.52,22.93-9.03,15.98-11.12-6.95-2.08-33.19-3.97-49.26-27.7l-33.18,3.43Z"/>
      <path class="cls-45" d="m1308.7,2101.9c-5.51.02-17.46-1.57-26.97,22.14-9.51,23.71-6.38,20.72,1.17,21.5,7.56.78,42.35,2.48,48.99,0,6.65-2.48-5.27-43.7-23.19-43.64Z"/>
      <path class="cls-106" d="m1543.57,1415.22s.46-39.23,3.91-42.68,8.9,12.63,8.9,12.63c0,0,14.93-33.35,20.1-32.47,5.17.88,15.22,15.81,15.79,20.98.57,5.17-3.45,18.38-9.19,25.84-5.74,7.47-14.09,19.81-19.97,29.51l-19.55-13.82Z"/>
    </g>
    <g>
      <rect id="Paper-2" data-name="Paper" class="cls-117" x="414.64" y="968.72" width="764.26" height="957.05"/>
      <g>
        <g>
          <path class="cls-55" d="m885.68,1634.65c-29.62,0-53.71-24.09-53.71-53.71s24.09-53.71,53.71-53.71,53.71,24.09,53.71,53.71-24.09,53.71-53.71,53.71Zm0-95.67c-23.14,0-41.96,18.82-41.96,41.96s18.82,41.96,41.96,41.96,41.96-18.82,41.96-41.96-18.82-41.96-41.96-41.96Z"/>
          <g>
            <path class="cls-71" d="m973.4,1577.09c-.29-6.45-1.27-12.77-2.92-18.89-3.61-13.48-10.43-25.93-20.06-36.41-.86-.94-1.74-1.86-2.65-2.76-5.29-5.29-11.13-9.82-17.4-13.53-.4-.24-.79-.47-1.19-.7-13.1-7.5-27.99-11.49-43.5-11.49-21.51,0-41.84,7.68-57.85,21.75-1.45,1.27-2.86,2.6-4.24,3.97-16.58,16.58-25.72,38.64-25.72,62.09,0,17.65,5.17,34.51,14.81,48.84,3.16,4.71,6.81,9.15,10.91,13.25,16.58,16.58,38.64,25.72,62.09,25.72,10.82,0,21.34-1.94,31.17-5.67,11.47-4.34,21.99-11.11,30.92-20.05,2.89-2.89,5.56-5.96,7.99-9.16,6.73-8.87,11.65-18.85,14.58-29.49,2.08-7.54,3.15-15.41,3.15-23.44,0-1.35-.03-2.69-.09-4.03Zm-67.25,57.23c-6.36,2.45-13.26,3.8-20.47,3.8-19.73,0-37.15-10.08-47.39-25.35-6.07-9.06-9.61-19.95-9.61-31.65,0-17.19,7.65-32.63,19.73-43.1,10-8.66,23.03-13.9,37.27-13.9,10.08,0,19.55,2.63,27.77,7.23.53.3,1.06.6,1.58.92,4.57,2.76,8.73,6.14,12.35,10.03,6.2,6.65,10.83,14.78,13.29,23.8,1.14,4.15,1.81,8.49,1.97,12.96.02.68.04,1.37.04,2.06,0,5.3-.73,10.44-2.09,15.31-1.94,6.96-5.17,13.38-9.42,18.99-6.37,8.43-15.02,15.04-25.03,18.9Z"/>
            <path class="cls-42" d="m955.76,1634.04c-2.43,3.21-5.1,6.27-7.99,9.16-8.93,8.93-19.45,15.7-30.92,20.05-9.83,3.73-20.35,5.67-31.17,5.67-23.45,0-45.5-9.13-62.09-25.72-4.1-4.1-7.75-8.54-10.91-13.25l25.61-17.2c10.24,15.28,27.66,25.35,47.39,25.35,7.21,0,14.11-1.35,20.47-3.8,10.01-3.87,18.66-10.47,25.03-18.9l24.58,18.63Z"/>
            <path class="cls-83" d="m930.37,1505.5l-15.34,26.78c-.52-.31-1.05-.62-1.58-.92-8.22-4.6-17.7-7.23-27.77-7.23-14.24,0-27.27,5.25-37.27,13.9l-20.58-22.97c16.01-14.06,36.34-21.75,57.85-21.75,15.51,0,30.4,3.99,43.5,11.49.4.23.8.46,1.19.7Z"/>
            <path class="cls-84" d="m973.49,1581.12c0,8.03-1.07,15.9-3.15,23.44-3.98,14.48-11.67,27.75-22.57,38.65-8.93,8.93-19.45,15.7-30.92,20.05l-10.7-28.94c16.67-6.44,29.59-20.5,34.44-37.89,1.36-4.87,2.09-10.01,2.09-15.31,0-.69-.01-1.38-.04-2.06l30.75-1.97c.06,1.34.09,2.68.09,4.03Z"/>
            <path class="cls-23" d="m973.49,1581.12c0,8.03-1.07,15.9-3.15,23.44l-29.75-8.13c1.36-4.87,2.09-10.01,2.09-15.31s-.7-10.23-2.01-15.02c-2.46-9.02-7.09-17.15-13.29-23.8l23.04-20.51c9.63,10.49,16.45,22.94,20.06,36.41,1.98,7.38,3.01,15.07,3.01,22.91Z"/>
            <path class="cls-103" d="m970.48,1558.2l-29.81,7.9c-4.07-14.89-14.03-27.36-27.22-34.75l15.73-26.56c6.72,3.84,12.97,8.61,18.59,14.23,11.04,11.04,18.77,24.5,22.71,39.18Z"/>
          </g>
        </g>
        <g>
          <rect class="cls-118" x="656.71" y="1544.22" width="100.68" height="19.16"/>
          <rect class="cls-118" x="656.71" y="1508.13" width="100.68" height="19.16"/>
          <rect class="cls-118" x="656.71" y="1472.24" width="100.68" height="19.16"/>
          <rect class="cls-118" x="656.71" y="1581.12" width="100.68" height="19.16"/>
          <rect class="cls-118" x="656.71" y="1618.01" width="100.68" height="19.16"/>
          <rect class="cls-118" x="656.71" y="1654.91" width="100.68" height="19.16"/>
          <rect class="cls-118" x="656.71" y="1688.83" width="100.68" height="19.16"/>
        </g>
        <rect class="cls-118" x="1010.43" y="1544.22" width="100.68" height="19.16"/>
        <rect class="cls-118" x="1010.43" y="1508.13" width="100.68" height="19.16"/>
        <rect class="cls-118" x="1010.43" y="1472.24" width="100.68" height="19.16"/>
        <rect class="cls-118" x="1010.43" y="1581.12" width="100.68" height="19.16"/>
        <rect class="cls-118" x="1010.43" y="1618.01" width="100.68" height="19.16"/>
        <rect class="cls-118" x="1010.43" y="1654.91" width="100.68" height="19.16"/>
        <rect class="cls-118" x="782.19" y="1688.83" width="204.84" height="19.16"/>
        <rect class="cls-118" x="463.9" y="1402.84" width="652.74" height="9.58"/>
        <rect class="cls-118" x="1010.43" y="1688.83" width="100.68" height="19.16"/>
        <g>
          <rect class="cls-96" x="467.92" y="1082" width="239.83" height="24.59"/>
          <rect class="cls-1" x="467.92" y="1082" width="91.59" height="24.59"/>
          <rect class="cls-19" x="467.92" y="1121.34" width="319.4" height="24.59"/>
          <rect class="cls-1" x="467.92" y="1121.34" width="196.82" height="24.59"/>
          <rect class="cls-134" x="467.92" y="1160.69" width="412.08" height="24.59"/>
          <rect class="cls-1" x="467.92" y="1160.69" width="150.6" height="24.59"/>
        </g>
        <g>
          <rect class="cls-118" x="936.73" y="1057.32" width="179.91" height="145.92"/>
          <rect class="cls-56" x="936.73" y="1057.32" width="89.96" height="145.92"/>
          <rect class="cls-4" x="936.73" y="1057.32" width="179.91" height="16.21"/>
          <rect class="cls-3" x="936.73" y="1089.75" width="179.91" height="16.21"/>
          <rect class="cls-3" x="936.73" y="1122.18" width="179.91" height="16.21"/>
          <rect class="cls-3" x="936.73" y="1154.61" width="179.91" height="16.21"/>
          <rect class="cls-3" x="936.73" y="1187.03" width="179.91" height="16.21"/>
        </g>
        <rect class="cls-118" x="463.18" y="1057.32" width="4.74" height="144.15"/>
        <rect class="cls-118" x="669.81" y="993.07" width="3.55" height="416.82" transform="translate(-529.89 1873.06) rotate(-90)"/>
        <g>
          <rect class="cls-56" x="464.17" y="1230.09" width="108.15" height="147.47"/>
          <rect class="cls-118" x="572.32" y="1230.09" width="108.15" height="147.47"/>
          <rect class="cls-56" x="680.46" y="1230.09" width="108.15" height="147.47"/>
          <rect class="cls-56" x="896.75" y="1230.09" width="108.15" height="147.47"/>
          <rect class="cls-118" x="788.61" y="1230.09" width="108.15" height="147.47"/>
          <rect class="cls-118" x="1004.9" y="1230.09" width="111.74" height="147.47"/>
          <rect class="cls-3" x="464.17" y="1251.71" width="652.47" height="20.97"/>
          <rect class="cls-4" x="464.17" y="1230.09" width="652.47" height="20.97"/>
          <rect class="cls-3" x="464.17" y="1293.66" width="652.47" height="20.97"/>
          <rect class="cls-3" x="464.17" y="1335.61" width="652.47" height="20.97"/>
        </g>
        <g>
          <polygon class="cls-70" points="596.99 1706.82 615.7 1509.3 634.94 1706.82 596.99 1706.82"/>
          <polygon class="cls-132" points="578.02 1706.82 596.72 1554.87 615.97 1706.82 578.02 1706.82"/>
          <polygon class="cls-35" points="559.04 1706.82 577.75 1455.94 596.99 1706.82 559.04 1706.82"/>
          <polygon class="cls-102" points="540.07 1706.82 558.77 1487.42 578.02 1706.82 540.07 1706.82"/>
          <polygon class="cls-75" points="521.09 1706.82 539.8 1509.3 559.04 1706.82 521.09 1706.82"/>
          <polygon class="cls-12" points="502.12 1706.82 520.82 1546.36 540.07 1706.82 502.12 1706.82"/>
          <polygon class="cls-78" points="483.14 1706.82 501.85 1435.54 521.09 1706.82 483.14 1706.82"/>
          <polygon class="cls-14" points="464.17 1706.82 482.88 1490.75 502.12 1706.82 464.17 1706.82"/>
        </g>
        <g>
          <g>
            <rect class="cls-13" x="464.17" y="1797.78" width="33.76" height="53.12"/>
            <rect class="cls-128" x="515.19" y="1778.27" width="33.76" height="72.63"/>
            <rect class="cls-66" x="566.21" y="1787.3" width="33.76" height="63.59"/>
            <rect class="cls-91" x="617.23" y="1764.54" width="33.76" height="86.36"/>
            <rect class="cls-107" x="668.25" y="1799.95" width="33.76" height="50.95"/>
            <rect class="cls-120" x="719.27" y="1778.27" width="33.76" height="72.63"/>
            <rect class="cls-108" x="770.29" y="1764.54" width="33.76" height="86.36"/>
            <rect class="cls-86" x="821.32" y="1790.19" width="33.76" height="60.7"/>
            <rect class="cls-10" x="872.34" y="1764.54" width="33.76" height="86.36"/>
            <rect class="cls-90" x="923.36" y="1755.14" width="33.76" height="95.75"/>
            <rect class="cls-88" x="974.38" y="1782.6" width="33.76" height="68.29"/>
            <rect class="cls-68" x="1025.4" y="1766.34" width="33.76" height="84.55"/>
            <rect class="cls-16" x="1076.42" y="1757.31" width="33.76" height="93.58"/>
          </g>
          <g>
            <rect class="cls-138" x="464.17" y="1817.13" width="33.76" height="33.76"/>
            <rect class="cls-138" x="515.19" y="1829.76" width="33.76" height="21.14"/>
            <rect class="cls-138" x="566.21" y="1820.54" width="33.76" height="30.35"/>
            <rect class="cls-138" x="617.23" y="1817.13" width="33.76" height="33.76"/>
            <rect class="cls-138" x="668.25" y="1826.96" width="33.76" height="23.94"/>
            <rect class="cls-138" x="719.27" y="1826.96" width="33.76" height="23.94"/>
            <rect class="cls-138" x="770.29" y="1817.13" width="33.76" height="33.76"/>
            <rect class="cls-138" x="821.32" y="1817.13" width="33.76" height="33.76"/>
            <rect class="cls-138" x="872.34" y="1824.34" width="33.76" height="26.56"/>
            <rect class="cls-138" x="923.36" y="1817.13" width="33.76" height="33.76"/>
            <rect class="cls-138" x="974.38" y="1808.62" width="33.76" height="42.28"/>
            <rect class="cls-138" x="1025.4" y="1826.96" width="33.76" height="23.94"/>
            <rect class="cls-138" x="1076.42" y="1799.95" width="33.76" height="50.95"/>
          </g>
        </g>
      </g>
    </g>
  </g>
</svg>