<?xml version="1.0" encoding="UTF-8"?>
<svg id="Calque_2" data-name="Calque 2" xmlns="http://www.w3.org/2000/svg" viewBox="0 0 2295.48 477.48">
  <defs>
    <style>
      .cls-1 {
        fill: #7168c1;
      }

      .cls-1, .cls-2 {
        stroke-width: 0px;
      }

      .cls-3 {
        fill: none;
        stroke: #282144;
        stroke-miterlimit: 10;
        stroke-width: 8px;
      }

      .cls-2 {
        fill: #282144;
      }
    </style>
  </defs>
  <g id="Calque_1-2" data-name="Calque 1">
    <rect class="cls-1" x="116" y="142.55" width="111" height="137"/>
    <g>
      <path class="cls-2" d="m489.97,438.88v-4.11c11.31-1.17,12.7-2.64,10.27-8.22-2.26-5.72-5.74-13.06-9.4-22.31h-37.58c-2.78,6.6-5.39,12.33-7.83,18.35-3.83,9.54-1.39,10.71,12.88,12.18v4.11h-40.19v-4.11c10.96-1.17,13.75-2.2,19.84-15.41l36.02-77.06,5.57-.88c10.96,25.1,22.97,52.84,33.93,78.23,5.57,12.77,7.13,13.94,19.49,15.12v4.11h-42.98Zm-17.4-78.23c-5.57,12.62-11.48,25.98-16.7,37.57h32.54l-15.83-37.57Z"/>
      <path class="cls-2" d="m564.44,417.45c-4.18,2.79-5.74,5.58-5.74,7.34,0,2.64,2.96,5.58,10.79,5.58,6.44,0,13.75-.15,19.49-.15,11.14,0,25.4,3.08,25.4,17.61,0,15.26-21.4,29.65-44.54,29.65-19.66,0-30.28-9.69-30.62-18.35,0-3.23,1.57-6.02,4.35-8.37,3.48-3.08,10.27-7.93,14.27-10.57-6.26-1.47-10.79-4.84-13.05-7.93-1.57-2.2-2.09-4.84-2.09-6.31,6.61-2.06,12.53-6.16,16.01-10.13l5.74,1.61Zm8.35,1.47c-16.18,0-29.58-8.37-29.58-22.16,0-16.73,17.75-24.51,31.32-24.51,5.74,0,11.48,1.32,16.7,3.67,8,0,18.44-1.17,23.32-2.2l1.04,1.32c-1.04,2.35-3.83,6.46-6.44,7.78-2.61,0-8.35-.59-10.79-.73,2.96,3.38,5.05,8.07,5.05,13.36,0,16-15.66,23.48-30.62,23.48Zm4,21.72c-8.53,0-12.35.88-15.49,3.08-4.87,3.38-8.35,7.78-8.35,12.04,0,8.07,9.92,14.09,23.32,14.09,16.53,0,25.93-7.19,25.93-16.59,0-4.99-2.78-8.95-7.66-10.71-4.35-1.61-10.44-1.91-17.75-1.91Zm-4-63.7c-7.83,0-14.79,6.02-14.79,17.61s6.96,19.67,16.53,19.67c7.66-.29,14.44-5.72,14.44-17.61s-6.44-19.67-16.18-19.67Z"/>
      <path class="cls-2" d="m683.8,426.41c-11.14,11.74-23.32,14.24-28.88,14.24-21.23,0-34.1-14.68-34.1-31.56,0-9.98,4.18-19.23,11.31-25.69,7.31-6.9,16.88-10.71,25.92-10.71,15.14,0,26.62,11.01,26.62,22.75-.17,2.94-.7,4.26-3.48,4.84-3.48.59-25.75,1.91-46.46,2.5-.52,19.67,13.75,27.74,26.1,27.74,7.13,0,13.75-2.5,20.18-7.49l2.78,3.38Zm-29.93-48.14c-8,0-15.83,6.31-18.27,18.2,9.74,0,19.49,0,29.75-.44,3.13,0,4.18-.73,4.18-2.94.17-7.78-5.92-14.82-15.66-14.82Z"/>
      <path class="cls-2" d="m745.04,438.88v-4.11c10.09-.88,11.14-1.91,11.14-11.89v-24.22c0-10.27-4.35-17.17-15.83-17.17-7.13,0-13.92,3.52-19.31,7.63v34.35c0,10.13,1.04,10.42,11.31,11.3v4.11h-37.58v-4.11c11.48-1.03,12.53-1.61,12.53-11.3v-30.24c0-9.54-1.22-9.98-10.61-11.3v-3.82c8.53-1.17,17.05-3.08,24.36-5.87v11.6c3.48-2.05,7.31-4.26,11.83-6.75,4.87-2.64,9.4-4.4,14.44-4.4,13.92,0,22.62,8.66,22.62,22.9v27.89c0,9.98,1.04,10.42,11.14,11.3v4.11h-36.02Z"/>
      <path class="cls-2" d="m856.4,425.67c-7.66,8.51-19.31,14.97-29.75,14.97-22.1,0-35.15-15.12-35.15-30.82,0-11.59,5.92-21.28,17.57-28.77,9.22-6.02,19.66-8.37,26.45-8.37,7.83,0,13.57,2.06,16.18,3.96,2.44,1.61,2.78,2.64,2.78,4.26,0,3.52-4.35,6.6-6.26,6.6-.87,0-1.57-.29-3.31-1.47-5.39-4.11-11.31-6.16-17.57-6.16-11.48,0-21.58,8.22-21.58,23.48-.17,20.4,16.36,27.15,26.45,27.15,7.31,0,13.22-1.61,21.23-8.07l2.96,3.23Z"/>
      <path class="cls-2" d="m928.95,426.41c-11.14,11.74-23.32,14.24-28.88,14.24-21.23,0-34.1-14.68-34.1-31.56,0-9.98,4.18-19.23,11.31-25.69,7.31-6.9,16.88-10.71,25.92-10.71,15.14,0,26.62,11.01,26.62,22.75-.17,2.94-.7,4.26-3.48,4.84-3.48.59-25.75,1.91-46.46,2.5-.52,19.67,13.75,27.74,26.1,27.74,7.13,0,13.75-2.5,20.18-7.49l2.78,3.38Zm-29.93-48.14c-8,0-15.83,6.31-18.27,18.2,9.74,0,19.49,0,29.75-.44,3.13,0,4.18-.73,4.18-2.94.17-7.78-5.92-14.82-15.66-14.82Z"/>
      <path class="cls-2" d="m1065.54,435.21c-3.65.59-16.7,2.35-26.97,5.43v-9.54c-3.13,1.61-7.66,3.67-10.79,5.28-6.96,3.38-11.66,4.26-13.75,4.26-13.92,0-32.36-11.74-32.36-32.29s21.23-35.67,45.06-35.67c2.44,0,8.18.29,11.83,1.61v-21.58c0-9.39-1.22-9.69-13.57-10.57v-3.82c8.7-1.03,20.88-3.08,27.32-4.99v88.5c0,7.63,1.22,8.66,7.66,8.95l5.57.29v4.11Zm-26.97-49.32c-4-5.14-11.48-7.49-18.27-7.49-8.35,0-23.14,4.7-23.14,25.83,0,17.76,13.05,27.15,24.19,27.3,6.26,0,13.05-2.64,17.23-5.28v-40.36Z"/>
      <path class="cls-2" d="m1137.04,426.41c-11.14,11.74-23.32,14.24-28.88,14.24-21.23,0-34.1-14.68-34.1-31.56,0-9.98,4.18-19.23,11.31-25.69,7.31-6.9,16.88-10.71,25.92-10.71,15.14,0,26.62,11.01,26.62,22.75-.17,2.94-.7,4.26-3.48,4.84-3.48.59-25.75,1.91-46.46,2.5-.52,19.67,13.75,27.74,26.1,27.74,7.13,0,13.75-2.5,20.18-7.49l2.78,3.38Zm-29.93-48.14c-8,0-15.83,6.31-18.27,18.2,9.74,0,19.49,0,29.75-.44,3.13,0,4.18-.73,4.18-2.94.17-7.78-5.92-14.82-15.66-14.82Z"/>
      <path class="cls-2" d="m1254.66,425.67c-7.66,8.51-19.31,14.97-29.75,14.97-22.1,0-35.15-15.12-35.15-30.82,0-11.59,5.92-21.28,17.57-28.77,9.22-6.02,19.66-8.37,26.45-8.37,7.83,0,13.57,2.06,16.18,3.96,2.44,1.61,2.78,2.64,2.78,4.26,0,3.52-4.35,6.6-6.26,6.6-.87,0-1.57-.29-3.31-1.47-5.39-4.11-11.31-6.16-17.57-6.16-11.48,0-21.58,8.22-21.58,23.48-.17,20.4,16.36,27.15,26.45,27.15,7.31,0,13.22-1.61,21.23-8.07l2.96,3.23Z"/>
      <path class="cls-2" d="m1302.86,372.69c21.75,0,37.93,13.94,37.93,32.88,0,23.78-20.88,35.08-37.93,35.08-24.01,0-38.63-16.29-38.63-32.73,0-23.92,22.1-35.23,38.63-35.23Zm-2.09,4.99c-10.61,0-20.18,8.66-20.18,25.69,0,18.64,9.74,32.14,24.01,32.14,10.79,0,19.84-6.6,19.84-26.71,0-17.17-8.35-31.12-23.66-31.12Z"/>
      <path class="cls-2" d="m1447.62,438.88v-4.11c10.27-.88,11.48-1.47,11.48-11.74v-24.51c0-10.42-4.18-17.03-14.96-17.03-6.61,0-12.7,3.08-19.31,7.63.17,1.76.52,3.52.52,6.31v28.47c0,9.25,1.57,9.98,11.14,10.86v4.11h-37.24v-4.11c10.79-.88,12.35-1.47,12.35-11.15v-25.25c0-10.86-4-16.88-14.62-16.88-6.96,0-13.75,3.96-19.14,7.63v34.49c0,9.69,1.22,10.27,11.14,11.15v4.11h-37.41v-4.11c11.48-.88,12.53-1.47,12.53-11.15v-30.38c0-9.39-.7-9.98-10.44-11.45v-3.67c8.18-1.03,16.36-2.94,24.19-5.87v11.89c3.65-2.35,7.31-4.84,12.88-7.63,4.35-2.35,8.18-3.82,13.75-3.82,8.35,0,15.49,4.4,18.97,12.04,4.87-3.23,9.4-5.72,13.75-8.22,3.83-2.06,8.7-3.82,13.75-3.82,13.57,0,21.92,8.22,21.92,22.6v28.33c0,9.83,1.04,10.27,10.96,11.15v4.11h-36.19Z"/>
      <path class="cls-2" d="m1589.77,438.88v-4.11c10.27-.88,11.48-1.47,11.48-11.74v-24.51c0-10.42-4.18-17.03-14.96-17.03-6.61,0-12.7,3.08-19.31,7.63.17,1.76.52,3.52.52,6.31v28.47c0,9.25,1.57,9.98,11.14,10.86v4.11h-37.24v-4.11c10.79-.88,12.35-1.47,12.35-11.15v-25.25c0-10.86-4-16.88-14.62-16.88-6.96,0-13.75,3.96-19.14,7.63v34.49c0,9.69,1.22,10.27,11.14,11.15v4.11h-37.41v-4.11c11.48-.88,12.53-1.47,12.53-11.15v-30.38c0-9.39-.7-9.98-10.44-11.45v-3.67c8.18-1.03,16.36-2.94,24.19-5.87v11.89c3.65-2.35,7.31-4.84,12.88-7.63,4.35-2.35,8.18-3.82,13.75-3.82,8.35,0,15.49,4.4,18.97,12.04,4.87-3.23,9.4-5.72,13.75-8.22,3.83-2.06,8.7-3.82,13.75-3.82,13.57,0,21.92,8.22,21.92,22.6v28.33c0,9.83,1.04,10.27,10.96,11.15v4.11h-36.19Z"/>
      <path class="cls-2" d="m1719.39,435.51c-8.35,1.03-17.75,2.94-26.62,5.14v-11.3c-9.4,6.6-17.05,11.3-26.62,11.3-11.66,0-21.75-6.02-21.75-22.02v-28.47c0-7.93-1.39-8.81-5.74-9.54l-4.87-.73v-3.82c7.48-.29,18.97-1.76,24.88-2.64-.52,4.7-.52,11.74-.52,21.43v19.96c0,12.92,8,16.59,15.83,16.59,6.44,0,12.88-2.35,18.79-7.05v-34.2c0-7.93-2.09-8.95-8-9.69l-5.57-.59v-3.82c11.14-.44,23.32-2.05,27.32-2.64v49.17c0,7.34,1.39,8.37,8,8.66l4.87.15v4.11Z"/>
      <path class="cls-2" d="m1778.03,438.88v-4.11c10.09-.88,11.14-1.91,11.14-11.89v-24.22c0-10.27-4.35-17.17-15.83-17.17-7.13,0-13.92,3.52-19.31,7.63v34.35c0,10.13,1.04,10.42,11.31,11.3v4.11h-37.58v-4.11c11.48-1.03,12.53-1.61,12.53-11.3v-30.24c0-9.54-1.22-9.98-10.61-11.3v-3.82c8.53-1.17,17.05-3.08,24.36-5.87v11.6c3.48-2.05,7.31-4.26,11.83-6.75,4.87-2.64,9.4-4.4,14.44-4.4,13.92,0,22.62,8.66,22.62,22.9v27.89c0,9.98,1.04,10.42,11.14,11.3v4.11h-36.02Z"/>
      <path class="cls-2" d="m1824.13,438.88v-4.11c10.96-.88,12.18-1.61,12.18-11.6v-30.24c0-9.1-.52-9.69-10.96-11.15v-3.52c9.05-1.32,17.23-3.23,24.71-5.87v50.78c0,9.98,1.22,10.71,12.53,11.6v4.11h-38.45Zm18.09-80.87c-4.87,0-9.22-3.67-9.22-7.78,0-4.7,4.35-8.07,9.4-8.07s8.87,3.38,8.87,8.07c0,4.11-4,7.78-9.05,7.78Z"/>
      <path class="cls-2" d="m1936.54,425.67c-7.66,8.51-19.31,14.97-29.75,14.97-22.1,0-35.15-15.12-35.15-30.82,0-11.59,5.92-21.28,17.57-28.77,9.22-6.02,19.66-8.37,26.45-8.37,7.83,0,13.57,2.06,16.18,3.96,2.44,1.61,2.78,2.64,2.78,4.26,0,3.52-4.35,6.6-6.26,6.6-.87,0-1.57-.29-3.31-1.47-5.39-4.11-11.31-6.16-17.57-6.16-11.48,0-21.58,8.22-21.58,23.48-.17,20.4,16.36,27.15,26.45,27.15,7.31,0,13.22-1.61,21.23-8.07l2.96,3.23Z"/>
      <path class="cls-2" d="m2001.09,440.64c-2.61,0-6.44-1.17-8.18-2.79-2.26-1.91-3.31-3.96-4.18-6.6-6.96,3.96-15.49,9.39-20.88,9.39-12.35,0-21.23-8.66-21.23-18.05,0-7.19,4.7-11.89,14.27-14.68,10.61-3.08,23.66-6.9,27.49-9.54v-2.94c0-10.42-6.26-16.44-15.31-16.44-4,0-6.44,1.61-8.18,3.38-1.91,2.06-3.13,5.28-4.7,9.54-.87,2.35-2.44,3.38-5.05,3.38-3.31,0-7.66-2.94-7.66-6.46,0-2.06,2.26-3.82,5.74-5.87,5.05-3.08,15.14-8.51,25.05-10.27,5.22,0,10.61,1.32,14.62,3.96,6.09,4.4,8.87,9.39,8.87,17.03v28.33c0,6.75,2.96,8.81,6.09,8.81,2.09,0,4.35-.73,6.26-1.61l1.74,4.11-14.79,7.34Zm-12.7-37.13c-3.83,1.61-12.18,4.7-16.18,6.16-6.61,2.5-10.61,5.28-10.61,10.71,0,7.78,6.96,11.3,12.53,11.3,4.52,0,10.79-2.35,14.27-5.28v-22.9Z"/>
      <path class="cls-2" d="m2055.55,438.74c-2.96,1.32-5.74,1.91-7.48,1.91-11.14,0-17.05-5.72-17.05-17.47v-42.71h-12.01l-.7-1.76,4.7-4.26h8v-12.33c3.31-2.94,8.35-6.75,11.66-9.69l2.61.29c-.35,6.16-.52,14.68-.52,21.72h19.83c1.57,1.47,1.04,4.7-1.04,6.02h-18.79v37.57c0,11.89,5.57,14.09,10.09,14.09,4.18,0,8.18-1.32,10.61-2.35l1.57,3.82-11.48,5.14Z"/>
      <path class="cls-2" d="m2074.16,438.88v-4.11c10.96-.88,12.18-1.61,12.18-11.6v-30.24c0-9.1-.52-9.69-10.96-11.15v-3.52c9.05-1.32,17.23-3.23,24.71-5.87v50.78c0,9.98,1.22,10.71,12.53,11.6v4.11h-38.45Zm18.09-80.87c-4.87,0-9.22-3.67-9.22-7.78,0-4.7,4.35-8.07,9.4-8.07s8.87,3.38,8.87,8.07c0,4.11-4,7.78-9.05,7.78Z"/>
      <path class="cls-2" d="m2160.29,372.69c21.75,0,37.93,13.94,37.93,32.88,0,23.78-20.88,35.08-37.93,35.08-24.01,0-38.63-16.29-38.63-32.73,0-23.92,22.1-35.23,38.63-35.23Zm-2.09,4.99c-10.61,0-20.18,8.66-20.18,25.69,0,18.64,9.74,32.14,24.01,32.14,10.79,0,19.84-6.6,19.84-26.71,0-17.17-8.35-31.12-23.66-31.12Z"/>
      <path class="cls-2" d="m2259.46,438.88v-4.11c10.09-.88,11.14-1.91,11.14-11.89v-24.22c0-10.27-4.35-17.17-15.83-17.17-7.13,0-13.92,3.52-19.31,7.63v34.35c0,10.13,1.04,10.42,11.31,11.3v4.11h-37.58v-4.11c11.48-1.03,12.53-1.61,12.53-11.3v-30.24c0-9.54-1.22-9.98-10.61-11.3v-3.82c8.53-1.17,17.05-3.08,24.36-5.87v11.6c3.48-2.05,7.31-4.26,11.83-6.75,4.87-2.64,9.4-4.4,14.44-4.4,13.92,0,22.62,8.66,22.62,22.9v27.89c0,9.98,1.04,10.42,11.14,11.3v4.11h-36.02Z"/>
    </g>
    <path class="cls-1" d="m591.85,84.77c-8.95-28.66-21.49-61.34-62.69-61.34-25.98,0-42.98,18.36-42.98,43.44s16.57,39.39,55.96,59.1c47.92,23.73,78.37,47.01,78.37,91.34,0,52.83-43.88,91.33-107.91,91.33-28.66,0-54.18-7.6-75.21-13.87-2.7-10.3-10.3-56.86-13.43-77.91l17.46-4.03c8.95,28.2,34.03,77.02,77.91,77.02,27.31,0,43.88-17.03,43.88-45.68,0-25.96-16.11-41.18-53.74-61.34-46.56-25.06-77-47.45-77-94.02S469.17,4.63,536.32,4.63c30.9,0,54.18,6.71,64.04,8.06,1.79,16.55,4.92,39.85,8.49,68.05l-17.01,4.03Z"/>
    <path class="cls-2" d="m827.95,258.05c-27.32,40.29-63.14,49.25-81.94,49.25-60.01,0-94.04-44.33-94.04-97.62,0-31.34,14.78-62.23,33.6-80.59,20.14-20.14,45.21-31.35,69.83-31.35,43.89,0,74.34,36.28,73.88,72.99,0,7.62-.44,15.22-5.81,16.57-8.51,2.24-71.64,5.38-115.08,7.16,1.8,47.47,28.22,71.64,60.45,71.64,17.46,0,34.93-6.27,51.04-20.14l8.08,12.09Zm-81.5-141.93c-17.9,0-33.12,21.04-35.82,56.4,18.36-.44,35.38-.89,54.18-1.33,6.27-.46,8.95-1.35,8.95-8.95.46-22.4-9.84-46.12-27.31-46.12Z"/>
    <path class="cls-2" d="m1003.11,307.3c-12.09,0-21.95-4.03-27.76-9.41-6.27-5.38-9.41-11.65-11.65-16.57-17.01,11.19-38.95,25.98-47.45,25.98-38.52,0-60.9-30-60.9-57.77,0-23.73,10.75-34.47,34.47-43.88,26.43-9.84,61.8-20.6,72.09-29.55v-19.71c0-23.28-8.51-36.26-27.76-36.26-7.6,0-13.87,3.57-17.9,8.95-5.38,7.16-7.16,16.11-10.75,29.55-3.14,12.09-10.3,15.22-19.25,15.22-11.65,0-26.41-10.74-26.41-23.28,0-8.06,5.38-13.89,15.66-21.05,20.16-13.42,46.57-26.41,71.64-31.79,17.92,0,33.14,4.05,46.12,13,19.27,13.43,24.63,32.23,24.63,55.07v77.45c0,21.49,7.16,26.87,14.33,26.87,4.48,0,8.97-1.35,13.89-3.57l4.92,15.22-47.91,25.52Zm-41.2-112.84c-8.06,4.48-16.11,8.95-25.06,13.87-13.89,7.16-21.95,15.24-21.95,30.46,0,25.06,17.46,34.01,27.31,34.01,6.27,0,12.54-.44,19.71-7.16v-71.18Z"/>
    <path class="cls-2" d="m1263.82,118.34c-24.19,4.03-27.76,8.97-37.17,30-15.68,35.82-38.95,90.89-65.82,158.5h-18.79c-22.38-55.52-42.98-108.35-64.48-159.85-8.06-19.25-12.54-24.63-35.82-28.66v-15.22h111.92v15.22c-20.14,4.03-22.82,7.62-17.46,22.38,11.21,30.9,27.32,73.88,34.49,92.24,7.6-19.69,22.82-58.64,33.12-89.54,4.48-13.43,3.59-21.95-24.17-25.08v-15.22h84.18v15.22Z"/>
    <path class="cls-2" d="m1279.6,301.93v-15.22c24.17-3.14,26.85-4.92,26.85-36.71v-87.32c0-30-2.22-31.79-23.28-34.47v-14.78c28.22-3.14,56.42-8.95,81.05-16.11v152.68c0,30.44,1.79,33.58,27.76,36.71v15.22h-112.38Zm52.39-231.92c-17.03,0-32.25-14.33-32.25-31.79,0-18.36,15.22-31.79,32.68-31.79s32.25,13.43,32.25,31.79-14.33,31.79-32.68,31.79Z"/>
    <path class="cls-2" d="m1591.73,258.05c-27.31,40.29-63.13,49.25-81.92,49.25-60.01,0-94.04-44.33-94.04-97.62,0-31.34,14.78-62.23,33.6-80.59,20.14-20.14,45.21-31.35,69.83-31.35,43.88,0,74.34,36.28,73.88,72.99,0,7.62-.44,15.22-5.81,16.57-8.51,2.24-71.64,5.38-115.08,7.16,1.8,47.47,28.22,71.64,60.45,71.64,17.46,0,34.93-6.27,51.04-20.14l8.06,12.09Zm-81.48-141.93c-17.9,0-33.14,21.04-35.82,56.4,18.36-.44,35.38-.89,54.18-1.33,6.27-.46,8.95-1.35,8.95-8.95.46-22.4-9.84-46.12-27.31-46.12Z"/>
    <path class="cls-2" d="m1927.22,118.34c-21.49,4.03-24.63,6.27-34.47,30-16.13,41.63-35.38,96.27-56.87,158.5h-18.79c-16.57-41.63-35.38-84.62-51.95-123.57-17.01,41.63-33.58,81.48-49.69,123.57h-18.36c-17.92-55.07-37.17-110.59-53.74-160.74-7.6-21.49-9.84-25.06-31.34-27.76v-15.22h113.27v15.22c-25.96,3.59-28.66,8.06-23.73,22.38,8.51,29.11,17.46,59.12,25.98,86.42,16.57-39.39,32.68-82.83,46.57-122.22h18.79c15.22,40.29,33.14,82.83,50.6,124.01,7.6-21.93,22.82-65.37,26.85-85.07,4.05-16.55-1.33-22.38-32.68-25.52v-15.22h89.56v15.22Z"/>
    <circle class="cls-1" cx="1333.31" cy="38.36" r="34.36"/>
    <rect class="cls-3" x="4" y="4" width="224.95" height="277.12"/>
    <rect class="cls-3" x="114.85" y="140.93" width="224.95" height="277.12"/>
  </g>
</svg>